<?xml version="1.0" standalone="no"?>
<!DOCTYPE svg PUBLIC "-//W3C//DTD SVG 20010904//EN"
 "http://www.w3.org/TR/2001/REC-SVG-20010904/DTD/svg10.dtd">
<svg version="1.0" xmlns="http://www.w3.org/2000/svg"
 width="800.000000pt" height="800.000000pt" viewBox="0 0 800.000000 800.000000"
 preserveAspectRatio="xMidYMid meet">
<metadata>
Created by potrace 1.16, written by Peter Selinger 2001-2019
</metadata>
<g transform="translate(0.000000,800.000000) scale(0.100000,-0.100000)"
fill="#000000" stroke="none">
<path d="M5840 6720 c-124 -12 -229 -49 -333 -118 -36 -24 -51 -27 -186 -33
-158 -7 -177 -12 -312 -79 -112 -56 -222 -136 -340 -248 -116 -111 -178 -199
-218 -309 -55 -153 -71 -173 -186 -238 -137 -78 -195 -144 -245 -278 l-24 -67
-52 0 c-28 0 -67 -6 -86 -14 -112 -47 -269 -219 -363 -398 -25 -48 -34 -57
-62 -61 -126 -21 -337 -219 -431 -404 l-21 -41 -40 10 c-79 20 -198 -36 -299
-140 -61 -64 -175 -230 -211 -309 -20 -44 -29 -53 -50 -53 -43 -1 -154 -45
-215 -85 -121 -80 -266 -236 -321 -346 -23 -45 -25 -46 -79 -52 -88 -9 -147
-48 -291 -192 -194 -193 -314 -343 -380 -475 -38 -76 -58 -95 -141 -135 -96
-46 -177 -133 -238 -258 -94 -190 -98 -340 -16 -559 46 -125 197 -306 329
-394 177 -119 422 -185 607 -164 203 23 363 86 455 180 76 77 92 87 198 115
153 41 308 111 551 248 139 79 236 164 246 217 7 35 18 42 89 59 113 28 332
152 419 238 46 45 96 120 96 144 0 12 12 18 41 23 76 12 263 78 352 123 144
74 226 164 227 249 0 29 2 31 73 48 80 19 228 85 310 140 65 43 132 109 147
145 9 24 24 31 108 55 274 76 472 212 472 323 0 15 17 21 100 34 126 21 183
49 288 144 45 41 96 82 112 90 17 9 85 22 152 31 87 10 142 23 192 44 106 45
267 146 370 231 151 127 213 211 256 348 36 113 43 125 135 215 114 113 178
260 214 492 7 50 26 104 63 180 l53 108 -1 101 c0 85 -5 114 -32 192 -77 226
-219 449 -411 646 -125 128 -200 187 -296 233 -108 52 -154 57 -290 34 -107
-19 -122 -19 -203 -6 -124 20 -196 24 -282 16z m308 -101 c119 -31 124 -32
158 -16 19 9 41 17 48 17 26 0 151 -147 216 -254 163 -269 291 -448 412 -576
113 -120 199 -236 230 -310 l20 -49 -27 -23 c-21 -19 -28 -36 -35 -93 -5 -39
-9 -101 -10 -138 0 -142 -85 -308 -201 -393 -26 -19 -56 -34 -67 -34 -29 0
-39 -18 -45 -86 -18 -175 -125 -330 -329 -473 l-71 -50 -30 17 c-54 30 -143
120 -189 189 -65 98 -115 202 -203 423 -110 276 -172 417 -211 475 -70 107
-181 203 -434 380 -227 159 -345 251 -401 314 -67 74 -117 179 -125 257 l-7
62 59 46 c135 106 284 172 413 183 58 5 99 0 204 -23 24 -6 29 -2 42 29 25 61
158 134 285 156 80 14 160 6 298 -30z m355 25 c59 -30 113 -82 193 -184 43
-57 113 -146 154 -199 42 -53 96 -125 121 -161 207 -296 252 -365 283 -430 37
-77 45 -133 24 -163 -11 -15 -20 -6 -70 76 -31 50 -94 136 -140 190 -174 205
-251 305 -315 407 -138 219 -214 327 -277 397 -70 76 -69 72 -13 82 4 0 22 -6
40 -15z m146 -44 c59 -30 181 -131 260 -216 54 -57 71 -83 71 -105 0 -31 -19
-79 -31 -79 -5 0 -36 37 -71 83 -96 127 -186 237 -237 290 -50 52 -49 56 8 27z
m-1774 -567 c63 -128 175 -230 515 -473 366 -261 425 -333 543 -660 161 -445
280 -657 422 -747 25 -15 45 -30 45 -34 0 -8 -140 -83 -200 -107 -78 -30 -124
-41 -210 -48 -54 -4 -92 -14 -136 -36 l-61 -30 -49 25 c-147 75 -306 220 -543
491 -86 99 -199 228 -251 286 -265 293 -378 448 -470 643 -46 97 -80 214 -80
274 0 20 12 39 39 64 21 21 45 57 54 80 8 24 22 64 31 89 30 86 92 175 196
283 l105 110 7 -68 c5 -49 17 -90 43 -142z m2222 87 c25 -9 40 -30 91 -133 63
-125 96 -212 107 -282 l6 -40 -23 38 c-39 65 -172 268 -226 344 -34 47 -47 73
-39 76 21 9 53 7 84 -3z m-2717 -534 c0 -88 67 -253 166 -407 88 -138 479
-658 597 -795 194 -224 418 -412 577 -484 30 -13 57 -26 59 -27 11 -8 -99 -99
-145 -120 -63 -29 -171 -53 -239 -53 -28 0 -56 -5 -62 -11 -19 -19 -229 147
-402 315 -237 233 -399 419 -525 602 -136 199 -212 331 -276 475 l-62 141 27
87 c44 142 111 235 210 292 68 39 75 38 75 -15z m-375 -343 c39 -16 42 -20 65
-97 81 -267 356 -671 702 -1031 174 -181 398 -368 510 -426 45 -23 61 -75 35
-118 -52 -89 -352 -231 -487 -231 -46 0 -56 5 -159 83 -229 172 -558 498 -710
704 -72 96 -103 147 -319 511 l-90 153 18 50 c52 142 219 345 325 395 60 28
59 28 110 7z m-416 -576 c130 -311 346 -610 686 -953 185 -186 301 -284 425
-358 l80 -47 -16 -31 c-62 -121 -247 -230 -462 -275 l-74 -15 -80 49 c-172
104 -372 268 -549 451 -143 147 -218 239 -324 397 -101 148 -124 192 -177 338
l-41 111 38 75 c90 184 220 317 355 364 83 29 81 30 139 -106z m-609 -332 c14
-8 34 -14 45 -15 17 0 26 -18 55 -102 56 -168 165 -362 293 -528 105 -134 251
-292 345 -373 115 -100 367 -289 433 -326 39 -21 50 -33 58 -65 19 -78 -39
-146 -184 -216 -120 -58 -328 -120 -401 -120 -15 0 -69 25 -122 57 -184 107
-332 222 -500 387 -137 134 -218 229 -306 359 -82 122 -113 182 -165 328 l-42
117 25 60 c51 121 145 263 231 347 95 95 174 125 235 90z m-519 -513 c3 -4 18
-43 34 -87 43 -123 106 -250 182 -365 90 -136 164 -224 326 -389 214 -217 373
-341 520 -406 66 -29 68 -31 63 -62 -17 -117 -227 -263 -460 -320 -56 -13
-111 -29 -123 -35 -57 -28 -363 219 -619 500 -155 169 -252 310 -401 581 l-73
134 34 71 c68 141 211 297 320 351 80 39 175 52 197 27z m-595 -468 c26 -5 32
-13 47 -65 39 -134 145 -318 278 -484 89 -111 397 -418 499 -497 105 -81 189
-137 257 -172 50 -25 52 -27 42 -53 -25 -69 -83 -110 -344 -241 -193 -97 -373
-169 -487 -196 -47 -11 -267 150 -523 383 -147 134 -221 224 -373 453 -121
181 -118 175 -94 201 10 12 31 45 46 73 40 75 131 193 258 334 229 255 278
288 394 264z m-694 -824 c77 -172 233 -351 559 -642 110 -99 240 -197 317
-241 l53 -30 -38 -40 c-127 -132 -393 -214 -610 -187 -148 19 -251 61 -378
155 -114 84 -225 223 -276 345 -20 48 -23 72 -23 185 0 116 3 137 26 197 55
145 150 263 264 330 58 34 59 35 68 14 5 -12 22 -50 38 -86z"/>
<path d="M5240 6436 c-85 -22 -165 -88 -194 -158 -23 -55 -21 -152 6 -207 35
-75 149 -179 254 -233 276 -143 479 -149 655 -19 41 30 72 62 83 85 40 84 30
205 -25 316 -53 104 -126 146 -306 175 -54 9 -150 25 -213 35 -131 23 -195 24
-260 6z m438 -102 c121 -29 192 -51 192 -59 0 -21 -31 -40 -61 -37 -57 6 -131
-25 -196 -83 -33 -30 -64 -55 -66 -55 -3 0 -1 15 4 32 24 86 -36 191 -127 223
-38 13 -36 19 11 27 26 5 21 6 243 -48z m-217 -27 c19 -12 45 -44 58 -71 23
-45 24 -53 13 -105 -13 -62 -32 -82 -118 -128 l-51 -27 -49 19 c-98 37 -154
91 -154 150 0 33 39 124 61 142 23 18 110 42 160 42 32 1 56 -6 80 -22z m429
-166 c28 -11 73 -34 101 -52 l51 -33 -6 -44 c-11 -84 -59 -131 -151 -148 -22
-4 -75 -20 -118 -35 -99 -36 -170 -45 -238 -29 -63 14 -242 97 -279 128 l-25
22 45 -16 c96 -33 225 13 365 132 112 96 161 110 255 75z"/>
<path d="M5302 6293 c-101 -49 -122 -189 -40 -258 108 -91 275 87 198 212 -21
35 -66 63 -102 63 -13 0 -38 -8 -56 -17z m119 -42 c34 -35 37 -68 9 -128 -24
-55 -89 -91 -133 -74 -68 26 -66 126 5 194 48 45 79 48 119 8z"/>
<path d="M5694 6056 c-73 -73 -29 -196 70 -196 31 0 62 36 75 87 15 54 6 87
-31 118 -41 34 -73 32 -114 -9z m108 -13 c37 -33 11 -127 -39 -139 -21 -6 -31
-1 -51 21 -28 33 -25 75 10 112 25 27 54 29 80 6z"/>
<path d="M6415 5310 c-122 -64 -192 -160 -221 -305 -14 -66 -15 -93 -5 -180
39 -349 199 -535 405 -470 74 23 128 72 166 148 25 51 34 93 56 247 42 299 27
418 -64 506 -54 52 -115 77 -201 82 -70 4 -81 2 -136 -28z m177 -9 c31 -12 63
-112 62 -192 -1 -80 -24 -113 -124 -182 -175 -118 -242 -199 -244 -294 -1 -24
-2 -43 -3 -43 -1 0 -9 22 -18 49 -38 116 -36 311 4 388 11 21 38 60 61 88 23
27 52 70 65 95 26 50 60 86 90 93 35 8 83 7 107 -2z m183 -230 c3 -10 1 -99
-5 -197 -8 -129 -15 -187 -28 -213 l-17 -36 -6 40 c-14 101 -101 176 -190 163
-16 -3 -29 -3 -29 -2 0 2 32 22 70 44 39 23 79 51 91 63 27 29 59 91 59 116 0
11 8 25 18 30 24 15 30 13 37 -8z m-154 -285 c101 -48 87 -207 -24 -290 -22
-17 -43 -21 -95 -21 -112 1 -172 45 -172 128 0 52 46 133 99 173 42 33 50 36
101 32 30 -2 71 -12 91 -22z"/>
<path d="M6376 5117 c-40 -40 -30 -102 24 -144 21 -17 85 -16 120 2 57 29 65
78 22 126 -24 27 -37 33 -85 37 -50 4 -58 2 -81 -21z"/>
<path d="M4905 5743 c-26 -11 -63 -16 -105 -15 -36 1 -80 0 -98 -4 -75 -12
-194 -171 -194 -259 0 -38 7 -55 39 -98 22 -29 72 -107 111 -174 109 -184 204
-278 292 -289 45 -5 51 -1 131 102 62 80 68 93 75 166 3 35 15 92 26 127 18
55 19 72 10 128 -6 36 -24 93 -41 129 -34 73 -120 170 -168 190 -38 16 -29 17
-78 -3z m104 -98 c37 -18 95 -86 121 -140 28 -57 26 -130 -8 -271 -32 -133
-45 -162 -95 -216 -30 -33 -41 -38 -78 -38 -99 1 -176 68 -241 209 -22 47 -55
106 -73 131 -78 108 -83 150 -27 231 65 94 133 120 218 84 32 -13 37 -13 67 5
38 24 78 25 116 5z"/>
<path d="M4796 5455 c-55 -60 -33 -172 48 -243 95 -83 216 -25 204 97 -9 95
-91 171 -182 171 -37 0 -52 -5 -70 -25z m164 -48 c45 -30 74 -80 66 -113 -11
-42 -59 -84 -96 -84 -60 0 -134 110 -115 170 17 54 87 67 145 27z"/>
<path d="M5410 4690 c-8 -5 -44 -19 -79 -31 -110 -37 -129 -75 -96 -186 21
-70 69 -129 183 -222 54 -44 113 -100 131 -126 18 -25 51 -55 74 -67 121 -61
303 16 337 144 13 48 30 85 60 138 55 93 -51 248 -220 323 -48 22 -75 26 -215
31 -94 3 -166 1 -175 -4z m390 -72 c93 -43 151 -115 152 -187 0 -44 -14 -76
-42 -91 -16 -8 -18 -18 -14 -62 7 -74 -17 -110 -101 -149 -106 -50 -162 -40
-233 42 -18 20 -81 80 -141 133 -128 112 -161 163 -142 225 14 47 45 76 107
102 43 17 68 19 204 16 142 -3 160 -6 210 -29z"/>
<path d="M5529 4555 c-15 -8 -34 -31 -44 -51 -22 -47 -9 -96 39 -146 62 -64
154 -88 203 -53 72 50 31 212 -63 251 -42 18 -101 17 -135 -1z m135 -26 c35
-28 56 -70 56 -114 0 -49 -28 -75 -81 -75 -35 0 -48 6 -80 39 -32 32 -39 46
-39 77 0 47 7 58 45 78 41 21 67 20 99 -5z"/>
<path d="M3893 4695 c-66 -28 -53 -115 23 -166 40 -26 61 -24 95 10 76 77 -16
199 -118 156z"/>
<path d="M4653 3760 c-39 -23 -42 -50 -13 -98 28 -46 79 -69 118 -53 41 17 58
59 42 105 -21 65 -84 85 -147 46z"/>
<path d="M3264 4466 c-73 -33 -85 -103 -28 -165 59 -67 151 -84 192 -36 40 47
23 152 -31 188 -37 24 -96 30 -133 13z m123 -65 c25 -37 31 -99 11 -119 -18
-18 -54 -15 -98 8 -66 34 -81 92 -33 130 41 32 91 24 120 -19z"/>
<path d="M3431 4023 c-20 -10 -39 -30 -48 -51 -12 -30 -12 -37 4 -70 26 -51
79 -91 135 -98 41 -6 49 -4 72 19 21 21 26 36 26 73 0 114 -90 175 -189 127z
m100 -23 c46 -25 69 -131 33 -157 -48 -35 -161 38 -152 99 3 23 60 68 85 68 8
0 23 -5 34 -10z"/>
<path d="M3802 3557 c-30 -32 -29 -89 2 -141 28 -49 63 -70 113 -70 76 0 131
109 87 173 -40 57 -163 80 -202 38z m100 -17 c38 -11 88 -60 88 -87 0 -8 -13
-28 -29 -44 -51 -51 -112 -32 -140 44 -15 40 -14 54 9 77 23 23 23 23 72 10z"/>
<path d="M4209 3322 c-17 -15 -22 -29 -22 -63 0 -118 116 -191 194 -121 42 38
51 104 19 145 -43 54 -146 75 -191 39z m116 -32 c72 -35 79 -102 14 -136 -41
-21 -54 -18 -88 21 -50 58 -40 133 18 135 8 0 33 -9 56 -20z"/>
<path d="M2675 3976 c-36 -16 -65 -56 -65 -88 0 -35 46 -95 88 -117 94 -48
172 -17 172 69 0 49 -19 98 -49 124 -27 24 -106 31 -146 12z m103 -32 c30 -21
52 -66 52 -109 0 -47 -32 -64 -89 -46 -42 12 -91 61 -91 90 0 26 37 69 63 74
39 8 42 7 65 -9z"/>
<path d="M2849 3527 c-86 -57 -68 -147 39 -201 89 -45 162 -8 162 82 0 114
-111 180 -201 119z m138 -56 c25 -37 31 -99 11 -119 -29 -29 -108 -5 -147 44
-28 36 -26 58 7 89 21 20 35 25 67 23 32 -2 44 -9 62 -37z"/>
<path d="M3204 3151 c-70 -30 -69 -135 1 -201 94 -88 237 17 183 135 -21 47
-134 87 -184 66z m102 -47 c47 -22 68 -64 52 -99 -13 -28 -55 -55 -86 -55 -33
0 -82 65 -82 108 0 21 5 43 12 50 17 17 64 15 104 -4z"/>
<path d="M3599 2891 c-35 -36 -37 -68 -8 -129 25 -50 69 -82 117 -82 47 0 100
52 108 107 6 39 4 45 -28 77 -60 60 -144 72 -189 27z m137 -32 c59 -36 55
-107 -7 -133 -39 -16 -60 -11 -89 19 -26 28 -38 98 -20 120 18 21 77 19 116
-6z"/>
<path d="M2135 3433 c-36 -9 -65 -44 -65 -79 0 -51 73 -124 126 -124 9 0 31
15 50 34 36 36 44 78 24 117 -18 33 -92 61 -135 52z"/>
<path d="M2255 3048 c-11 -6 -25 -19 -32 -27 -41 -53 29 -161 105 -161 38 0
92 58 92 98 0 72 -101 127 -165 90z"/>
<path d="M2602 2674 c-19 -10 -40 -28 -49 -40 -13 -20 -13 -27 3 -60 49 -104
204 -96 204 10 0 77 -87 126 -158 90z"/>
<path d="M2968 2473 c-14 -9 -31 -26 -36 -37 -19 -41 25 -107 84 -126 47 -16
99 10 114 54 13 39 6 61 -28 99 -30 32 -90 37 -134 10z"/>
<path d="M1459 2865 c-14 -8 -32 -27 -38 -44 -23 -55 31 -126 110 -146 21 -5
34 0 62 25 20 17 38 44 42 60 18 81 -95 149 -176 105z m122 -46 c26 -26 20
-75 -11 -101 -27 -22 -72 -7 -100 32 -25 35 -25 45 0 70 27 27 83 27 111 -1z"/>
<path d="M1610 2547 c-33 -17 -55 -57 -47 -89 11 -41 55 -86 95 -98 31 -8 41
-6 69 13 73 50 70 132 -7 172 -35 18 -77 19 -110 2z"/>
<path d="M1973 2171 c-72 -33 -80 -83 -23 -140 32 -32 84 -47 119 -36 64 20
82 102 34 155 -36 39 -77 46 -130 21z"/>
<path d="M2282 1979 c-40 -26 -49 -57 -27 -98 36 -71 125 -92 176 -42 43 44
35 104 -21 148 -24 19 -91 15 -128 -8z"/>
<path d="M955 2121 c-80 -33 -75 -131 8 -181 48 -30 83 -26 123 14 27 27 34
42 34 73 0 73 -90 124 -165 94z m103 -47 c44 -31 17 -124 -37 -124 -24 0 -78
44 -86 71 -17 51 72 89 123 53z"/>
<path d="M1370 1695 c-70 -32 -85 -62 -54 -113 24 -40 61 -64 110 -70 38 -4
47 -1 74 26 83 83 -19 206 -130 157z m102 -42 c41 -36 10 -103 -47 -103 -64 0
-111 64 -74 101 24 24 95 26 121 2z"/>
</g>
</svg>
