<?xml version="1.0" encoding="utf-8"?>
<!-- Generator: Adobe Illustrator 15.1.0, SVG Export Plug-In . SVG Version: 6.00 Build 0)  -->
<!DOCTYPE svg PUBLIC "-//W3C//DTD SVG 1.1//EN" "http://www.w3.org/Graphics/SVG/1.1/DTD/svg11.dtd">
<svg version="1.1" id="Layer_1" xmlns="http://www.w3.org/2000/svg" xmlns:xlink="http://www.w3.org/1999/xlink" x="0px" y="0px"
	 width="595.281px" height="841.891px" viewBox="0 0 595.281 841.891" enable-background="new 0 0 595.281 841.891"
	 xml:space="preserve">
<g transform="matrix(4.16667,0,0,4.16667,-1079.46,0)">
	<path fill="#FFFFFF" d="M302.876,132.128c-5.867,0-10.639,4.774-10.639,10.641c0,5.867,4.773,10.64,10.639,10.64
		c5.866,0,10.639-4.773,10.639-10.64C313.516,136.901,308.743,132.128,302.876,132.128z M302.876,134.332
		c4.66,0,8.435,3.777,8.435,8.436c0,4.658-3.775,8.435-8.435,8.435c-2.912,0-5.479-1.475-6.995-3.719
		c-0.909-1.346-1.44-2.969-1.44-4.716C294.441,138.11,298.216,134.332,302.876,134.332z"/>
</g>
<g>
	<g transform="matrix(0.990776,0,0,1.00267,8.80532,-0.520273)">
		<rect x="-8.887" y="123.496" fill="#FEFFFE" width="600.862" height="593.739"/>
	</g>

		<text transform="matrix(0.9427 0 0 1 138.1958 507.7619)" fill="#85D4EA" font-family="'BerlinSansFBDemi-Bold'" font-size="335.0">iG</text>
</g>
</svg>
