<?xml version="1.0" standalone="no"?>
<!DOCTYPE svg PUBLIC "-//W3C//DTD SVG 20010904//EN"
 "http://www.w3.org/TR/2001/REC-SVG-20010904/DTD/svg10.dtd">
<svg version="1.0" xmlns="http://www.w3.org/2000/svg"
 width="105.000000pt" height="167.000000pt" viewBox="0 0 105.000000 167.000000"
 preserveAspectRatio="xMidYMid meet">

<g transform="translate(0.000000,167.000000) scale(0.100000,-0.100000)"
fill="#000000" stroke="none">
<path d="M424 1526 c-28 -13 -60 -36 -73 -51 -22 -29 -37 -72 -29 -81 3 -2 31
2 64 11 73 19 223 19 294 1 30 -8 57 -13 59 -11 2 2 1 15 -3 28 -17 69 -111
127 -206 127 -37 0 -72 -8 -106 -24z"/>
<path d="M491 937 c-14 -6 -37 -33 -53 -59 l-27 -48 114 0 c63 0 115 2 115 5
0 10 -33 60 -59 88 -27 29 -52 34 -90 14z"/>
<path d="M435 764 c-115 -28 -137 -57 -104 -135 12 -27 22 -49 23 -49 0 0 23
7 50 15 27 8 84 15 126 15 42 0 99 -7 126 -15 27 -8 49 -15 50 -15 7 -1 35
112 31 124 -13 32 -95 59 -192 62 -49 2 -99 1 -110 -2z"/>
</g>
</svg>
