<?xml version="1.0" standalone="no"?>
<!DOCTYPE svg PUBLIC "-//W3C//DTD SVG 20010904//EN"
 "http://www.w3.org/TR/2001/REC-SVG-20010904/DTD/svg10.dtd">
<svg version="1.0" xmlns="http://www.w3.org/2000/svg"
 width="435.000000pt" height="694.000000pt" viewBox="0 0 435.000000 694.000000"
 preserveAspectRatio="xMidYMid meet">
<metadata>
Created by potrace 1.16, written by Peter Selinger 2001-2019
</metadata>
<g transform="translate(0.000000,694.000000) scale(0.100000,-0.100000)"
fill="#000000" stroke="none">
<path d="M2045 6450 c-353 -56 -625 -252 -705 -509 -17 -52 -28 -171 -17 -171
2 0 39 13 83 29 104 38 299 85 444 108 87 13 175 18 365 18 190 0 278 -5 365
-18 135 -21 338 -69 427 -102 l63 -23 0 45 c0 65 -44 187 -96 265 -110 165
-316 292 -559 344 -86 19 -289 26 -370 14z"/>
<path d="M2100 3929 c-68 -13 -146 -56 -186 -102 -20 -23 -62 -96 -95 -163
-32 -66 -74 -144 -94 -173 -19 -29 -35 -55 -35 -57 0 -2 221 -4 490 -4 357 0
490 3 490 11 0 6 -19 46 -42 88 -123 224 -226 357 -303 392 -44 20 -145 24
-225 8z"/>
<path d="M1995 3189 c-186 -18 -412 -69 -518 -117 -206 -94 -228 -231 -86
-532 28 -58 58 -111 68 -117 13 -8 45 -1 147 32 222 74 323 90 579 89 199 0
232 -3 346 -27 103 -22 297 -80 370 -111 14 -6 22 7 44 66 15 40 43 109 62
153 19 44 46 105 59 135 70 162 -13 254 -313 350 -242 78 -500 105 -758 79z"/>
<path d="M1990 2286 c-177 -26 -465 -108 -465 -133 0 -21 547 -615 589 -640
12 -7 44 -12 72 -13 69 0 119 34 275 190 130 130 233 268 305 413 28 55 33 72
22 78 -26 17 -205 71 -298 90 -127 26 -373 33 -500 15z"/>
<path d="M1296 2009 c-330 -367 -406 -897 -192 -1335 157 -319 436 -548 783
-641 91 -25 113 -27 298 -27 184 0 208 2 295 26 461 125 798 485 886 945 20
104 22 326 5 423 -42 227 -147 444 -294 605 l-55 60 -18 -34 c-158 -285 -321
-488 -543 -673 -124 -103 -194 -138 -275 -138 -77 0 -132 25 -246 111 -183
137 -381 366 -512 590 -35 60 -68 117 -74 125 -9 14 -18 8 -58 -37z"/>
</g>
</svg>
