<?xml version="1.0" encoding="utf-8"?>
<!-- Generator: Adobe Illustrator 16.0.0, SVG Export Plug-In . SVG Version: 6.00 Build 0)  -->
<!DOCTYPE svg PUBLIC "-//W3C//DTD SVG 1.1//EN" "http://www.w3.org/Graphics/SVG/1.1/DTD/svg11.dtd">
<svg version="1.1" id="Layer_1" xmlns="http://www.w3.org/2000/svg" xmlns:xlink="http://www.w3.org/1999/xlink" x="0px" y="0px"
	 width="261px" height="206.8896px" viewBox="0 0 261 206.8896" style="enable-background:new 0 0 261 206.8896;"
	 xml:space="preserve">
<style type="text/css">
<![CDATA[
	.st0{fill-rule:evenodd;clip-rule:evenodd;fill:#3C3C3C;}
	.st1{fill-rule:evenodd;clip-rule:evenodd;fill:#D9BD9D;}
	.st2{fill-rule:evenodd;clip-rule:evenodd;fill:#D9BD9D;stroke:#594A42;stroke-width:5;stroke-miterlimit:10;}
	.st3{fill:none;stroke:#6D5D47;stroke-width:5;stroke-linecap:round;stroke-miterlimit:10;}
	.st4{fill:#FFFFFF;}
	.st5{fill-rule:evenodd;clip-rule:evenodd;fill:#C49A6C;}
	.st6{fill:#6CBE45;}
	.st7{fill:#39B54A;}
	.st8{fill:#D1D3D4;}
	.st9{fill-rule:evenodd;clip-rule:evenodd;fill:#39B54A;}
]]>
</style>
<g>
	<path class="st7" d="M21.9717,128.3535c0.0723,2.1602-1.5122,3.8877-4.0322,3.8877c-2.2324,0-3.8164-1.7275-3.8164-3.8877
		c0-2.2324,1.6563-3.9609,3.9604-3.9609C20.4595,124.3926,21.9717,126.1211,21.9717,128.3535z M14.915,172.9971v-34.8506h6.3364
		v34.8506H14.915z"/>
	<path class="st4" d="M76.1177,170.8369c-2.8081,1.0078-8.3525,2.6641-14.9053,2.6641c-7.3447,0-13.3931-1.8721-18.1455-6.4082
		c-4.1763-4.0322-6.7686-10.5127-6.7686-18.0742c0.0718-14.4727,10.0088-25.0576,26.2822-25.0576
		c5.6167,0,10.0088,1.2236,12.0972,2.2324l-1.5122,5.1123c-2.5923-1.1523-5.8325-2.0879-10.729-2.0879
		c-11.8091,0-19.5137,7.3438-19.5137,19.5137c0,12.3125,7.4165,19.585,18.7217,19.585c4.1045,0,6.9126-0.5762,8.3525-1.2959
		v-14.4736h-9.8647v-5.04h15.9854V170.8369z"/>
	<path class="st4" d="M92.8906,124.4648h6.2642v43.2754h20.7378v5.2568h-27.002V124.4648z"/>
	<path d="M172.7422,148.2266c0,16.7061-10.1528,25.5625-22.5381,25.5625c-12.8174,0-21.8179-9.9365-21.8179-24.626
		c0-15.4092,9.5767-25.4902,22.5381-25.4902C164.1733,123.6729,172.7422,133.8252,172.7422,148.2266z M135.0825,149.0186
		c0,10.3691,5.6167,19.6582,15.4814,19.6582c9.937,0,15.5537-9.1445,15.5537-20.1621c0-9.6484-5.0405-19.7295-15.4814-19.7295
		C140.2671,128.7852,135.0825,138.3623,135.0825,149.0186z"/>
	<path class="st4" d="M195.9946,172.9971l-12.313-48.5322h6.6245l5.7607,24.5537c1.4399,6.0488,2.7358,12.0977,3.6001,16.7783h0.144
		c0.792-4.8252,2.3042-10.585,3.9604-16.8496l6.4805-24.4824h6.5527l5.9043,24.626c1.3682,5.7607,2.6641,11.5215,3.3848,16.6338
		h0.1436c1.0088-5.3291,2.377-10.7295,3.8887-16.7773l6.4092-24.4824h6.4082l-13.7539,48.5322h-6.5518l-6.1211-25.2744
		c-1.5122-6.1924-2.5205-10.9443-3.1685-15.8408h-0.144c-0.8638,4.8242-1.9438,9.5762-3.7441,15.8408l-6.9126,25.2744H195.9946z"/>
</g>
<circle class="st6" cx="150.8896" cy="148.2773" r="28.7119"/>
<path class="st0" d="M123.9189,111.5537c-6.2144,4.293-11.876,8.3477-17.6938,12.1641c-2.8901,1.8965-4.9058,1.291-5.4736-2.5938
	c-2.2822-15.6211-2.5518-31.1934,1.2842-46.6104c3.2642-13.1201,11.0425-22.8467,22.7188-29.6689
	c1.8511-1.082,3.1528-3.4199,4.2339-5.4316c1.6416-3.0566,2.2529-6.8555,4.4087-9.4043c3.5566-4.2051,2.8896-11.1445,8.811-7.9805
	c5.0264-2.3906,11.9199-2.999,17.7725,0.3691c4.75-3.0078,5.002,3.9033,8.1787,7.1934c1.3369,1.3848,2.5605,3.3379,2.8555,5.1875
	c1.0371,6.5166,5.2441,9.9258,10.5137,13.2666c9.6816,6.1367,15.4707,15.4326,18.209,26.5088
	c3.7705,15.2539,3.6172,30.6426,1.3203,46.1055c-0.6533,4.3984-2.666,5.1143-6.0479,2.8203
	c-5.6201-3.8115-11.1279-7.7871-16.9014-11.8477c-2.333,5.1357-4.5771,10.4648-7.1445,15.6328
	c-3.6758,7.4023-8.7432,13.6699-15.4385,18.6738c-3.3867,2.5313-6.1104,2.3125-9.415-0.0859
	c-9.1245-6.6191-14.541-15.8389-18.814-25.9238C126.1387,117.1963,125.0737,114.4248,123.9189,111.5537z M154.1572,43.0674
	c-5.5059,31.4902,22.5781,64.2461,41.5518,74.1895c0.3252-0.9375,0.9434-1.8574,0.9072-2.75
	c-0.5156-12.5938,0.209-25.4219-1.9902-37.7227C190.5879,54.1992,169.2734,44.1924,154.1572,43.0674z M105.3237,117.7783
	c24.7573-14.1797,47.9116-47.7578,42.0679-75.0957c-14.2715,2.4531-26.9824,7.8926-34.8193,20.6064
	C102.2813,79.9844,104.1411,98.5664,105.3237,117.7783z M168.4004,119.2783c1.1445-2.8438,1.8418-5.2441,3.0244-7.375
	c2.5-4.5098,0.3105-6.5498-3.6494-8.1963c-8.5957-3.5732-17.4375-4.0889-26.4478-2.3545
	c-12.6748,2.4375-14.2461,5.8691-8.0981,17.1768c0.0713,0.1318,0.2646,0.1963,0.7466,0.5342
	C144.999,114.5049,156.3809,114.4521,168.4004,119.2783z M134.8481,125.3076c5.1528,5.6406,9.4644,10.5352,14.0366,15.1738
	c0.6826,0.6924,3.0068,0.751,3.8623,0.1289c5.5313-4.0234,9.8096-9.1484,12.8818-15.792
	C155.749,120.8779,146.3232,120.8564,134.8481,125.3076z M166.3145,39.6807c-2.4697-8.873-8.5908-13.8145-15.9424-13.5576
	c-7.1436,0.249-13.1216,5.6152-14.6172,13.5068C145.7715,35.8086,155.7109,35.752,166.3145,39.6807z M162.5596,94.4873
	c-6.2959-11.4941-7.6064-12.7539-13.8154-11.5693c-6.3159,1.2041-5.9927,7.6484-9.6611,11.5693
	C147.4951,94.4873,154.8906,94.4873,162.5596,94.4873z"/>
<path class="st1" d="M154.1572,43.0674c15.1162,1.125,36.4307,11.1318,40.4688,33.7168
	c2.1992,12.3008,1.4746,25.1289,1.9902,37.7227c0.0361,0.8926-0.582,1.8125-0.9072,2.75
	C176.7354,107.3135,148.6514,74.5576,154.1572,43.0674z"/>
<path class="st1" d="M105.3237,117.7783c-1.1826-19.2119-3.0425-37.7939,7.2485-54.4893
	c7.8369-12.7139,20.5479-18.1533,34.8193-20.6064C153.2354,70.0205,130.0811,103.5986,105.3237,117.7783z"/>
<path class="st5" d="M168.4004,119.2783c-12.0195-4.8262-23.4014-4.7734-34.4243-0.2148c-0.4819-0.3379-0.6753-0.4023-0.7466-0.5342
	c-6.1479-11.3076-4.5767-14.7393,8.0981-17.1768c9.0103-1.7344,17.8521-1.2188,26.4478,2.3545
	c3.96,1.6465,6.1494,3.6865,3.6494,8.1963C170.2422,114.0342,169.5449,116.4346,168.4004,119.2783z"/>
<path class="st9" d="M134.8481,125.3076c11.4751-4.4512,20.9009-4.4297,30.7808-0.4893
	c-3.0723,6.6436-7.3506,11.7686-12.8818,15.792c-0.8555,0.6221-3.1797,0.5635-3.8623-0.1289
	C144.3125,135.8428,140.001,130.9482,134.8481,125.3076z"/>
<path class="st5" d="M166.3145,39.6807c-10.6035-3.9287-20.543-3.8721-30.5596-0.0508c1.4956-7.8916,7.4736-13.2578,14.6172-13.5068
	C157.7236,25.8662,163.8447,30.8076,166.3145,39.6807z"/>
<path class="st5" d="M162.5596,94.4873c-7.6689,0-15.0645,0-23.4766,0c3.6685-3.9209,3.3452-10.3652,9.6611-11.5693
	C154.9531,81.7334,156.2637,82.9932,162.5596,94.4873z"/>
<line class="st3" x1="140.9536" y1="25.4229" x2="130.541" y2="13.2842"/>
<line class="st3" x1="161.4219" y1="25.1221" x2="171.835" y2="12.9834"/>
<g>
	<path class="st8" d="M15.8564,186.2314v5.5889c0,2.1152,0.9004,3.0117,2.1104,3.0117c1.3447,0,2.2051-0.9238,2.2051-3.0117v-5.5889
		h1.1826v5.5049c0,2.9004-1.4648,4.0908-3.4277,4.0908c-1.8555,0-3.2529-1.1064-3.2529-4.0342v-5.5615H15.8564z"/>
	<path class="st8" d="M24.7266,186.2314h1.1699v4.5527h0.04c0.2422-0.3643,0.4834-0.7002,0.7119-1.0088l2.7695-3.5439h1.4521
		l-3.2803,4.0068l3.5352,5.4346h-1.3838l-2.9844-4.6367l-0.8604,1.0371v3.5996h-1.1699V186.2314z"/>
	<path class="st8" d="M44.4443,195.2529c-0.5244,0.1953-1.5596,0.5176-2.7832,0.5176c-1.3711,0-2.5-0.3643-3.3877-1.2461
		c-0.7793-0.7842-1.2637-2.0449-1.2637-3.5156c0.0137-2.8164,1.8691-4.875,4.9072-4.875c1.0479,0,1.8682,0.2383,2.2578,0.4346
		l-0.2822,0.9941c-0.4834-0.2246-1.0889-0.4063-2.0029-0.4063c-2.2041,0-3.6426,1.4287-3.6426,3.7959
		c0,2.3955,1.3848,3.8105,3.4951,3.8105c0.7656,0,1.29-0.1123,1.5596-0.2529v-2.8154H41.46v-0.9805h2.9844V195.2529z"/>
	<path class="st8" d="M47.5742,186.2314h1.1699v8.4189h3.8711v1.0225h-5.041V186.2314z"/>
	<path class="st8" d="M62.4805,190.8545c0,3.25-1.8955,4.9727-4.207,4.9727c-2.3926,0-4.0732-1.9336-4.0732-4.791
		c0-2.9971,1.7881-4.958,4.207-4.958C60.8809,186.0781,62.4805,188.0527,62.4805,190.8545z M55.4502,191.0088
		c0,2.0166,1.0488,3.8232,2.8906,3.8232c1.8545,0,2.9033-1.7783,2.9033-3.9219c0-1.877-0.9414-3.8379-2.8906-3.8379
		C56.418,187.0723,55.4502,188.9355,55.4502,191.0088z"/>
	<path class="st8" d="M66.8203,195.6729l-2.2988-9.4414h1.2373l1.0752,4.7773c0.2686,1.1758,0.5107,2.3525,0.6719,3.2637h0.0273
		c0.1475-0.9385,0.4297-2.0596,0.7393-3.2783l1.21-4.7627h1.2227l1.1025,4.791c0.2559,1.1201,0.498,2.2412,0.6318,3.2354h0.0273
		c0.1875-1.0361,0.4434-2.0869,0.7256-3.2637l1.1963-4.7627h1.1963l-2.5674,9.4414h-1.2236l-1.1426-4.917
		c-0.2822-1.2041-0.4697-2.1289-0.5908-3.0811h-0.0273c-0.1611,0.9385-0.3633,1.8623-0.6992,3.0811l-1.29,4.917H66.8203z"/>
	<path class="st8" d="M80.5693,191.4287v0.9102H77.249v-0.9102H80.5693z"/>
	<path class="st8" d="M84.6689,195.6729l-2.2988-9.4414h1.2363l1.0752,4.7773c0.2695,1.1758,0.5117,2.3525,0.6729,3.2637h0.0264
		c0.1484-0.9385,0.4307-2.0596,0.7393-3.2783l1.21-4.7627h1.2236l1.1025,4.791c0.2549,1.1201,0.4971,2.2412,0.6318,3.2354h0.0264
		c0.1885-1.0361,0.4434-2.0869,0.7266-3.2637l1.1963-4.7627h1.1963l-2.5674,9.4414h-1.2236l-1.1426-4.917
		c-0.2822-1.2041-0.4707-2.1289-0.5918-3.0811h-0.0264c-0.1621,0.9385-0.3633,1.8623-0.6992,3.0811l-1.291,4.917H84.6689z"/>
	<path class="st8" d="M103.6475,190.8545c0,3.25-1.8955,4.9727-4.208,4.9727c-2.3926,0-4.0732-1.9336-4.0732-4.791
		c0-2.9971,1.7881-4.958,4.208-4.958C102.0479,186.0781,103.6475,188.0527,103.6475,190.8545z M96.6172,191.0088
		c0,2.0166,1.0479,3.8232,2.8896,3.8232c1.8555,0,2.9033-1.7783,2.9033-3.9219c0-1.877-0.9404-3.8379-2.8896-3.8379
		C97.585,187.0723,96.6172,188.9355,96.6172,191.0088z"/>
	<path class="st8" d="M106.5078,186.3574c0.5918-0.126,1.4385-0.1953,2.2451-0.1953c1.25,0,2.0566,0.2373,2.6221,0.7705
		c0.457,0.4199,0.7119,1.0645,0.7119,1.793c0,1.2461-0.7529,2.0723-1.707,2.4092v0.042c0.6992,0.252,1.1152,0.9238,1.3311,1.9043
		c0.2959,1.3174,0.5107,2.2275,0.6992,2.5918h-1.21c-0.1484-0.2666-0.3496-1.0781-0.6055-2.2549
		c-0.2686-1.3027-0.7529-1.793-1.8145-1.835h-1.1025v4.0898h-1.1699V186.3574z M107.6777,190.6582h1.1963
		c1.25,0,2.0439-0.7148,2.0439-1.793c0-1.2188-0.8477-1.751-2.084-1.7646c-0.5645,0-0.9678,0.0557-1.1563,0.1113V190.6582z"/>
	<path class="st8" d="M122.7188,191.5264c-0.0674-1.3164-0.1484-2.8994-0.1348-4.0762h-0.04
		c-0.3096,1.1064-0.6855,2.2832-1.1426,3.5859l-1.5996,4.5811h-0.8877l-1.4648-4.4971c-0.4307-1.3301-0.793-2.5488-1.0488-3.6699
		h-0.0273c-0.0264,1.1768-0.0938,2.7598-0.1748,4.1748l-0.2412,4.0479h-1.1162l0.6318-9.4414h1.4922l1.5459,4.5664
		c0.377,1.1631,0.6855,2.1992,0.9141,3.1797h0.041c0.2285-0.9521,0.5508-1.9883,0.9541-3.1797l1.6133-4.5664h1.4922l0.5645,9.4414
		h-1.1426L122.7188,191.5264z"/>
	<path class="st8" d="M131.4258,186.3574c0.5918-0.126,1.4385-0.1953,2.2451-0.1953c1.25,0,2.0566,0.2373,2.6211,0.7705
		c0.457,0.4199,0.7129,1.0645,0.7129,1.793c0,1.2461-0.7529,2.0723-1.708,2.4092v0.042c0.6992,0.252,1.1162,0.9238,1.3311,1.9043
		c0.2959,1.3174,0.5107,2.2275,0.6992,2.5918h-1.21c-0.1475-0.2666-0.3496-1.0781-0.6045-2.2549
		c-0.2695-1.3027-0.7529-1.793-1.8154-1.835h-1.1016v4.0898h-1.1699V186.3574z M132.5957,190.6582h1.1963
		c1.25,0,2.043-0.7148,2.043-1.793c0-1.2188-0.8467-1.751-2.084-1.7646c-0.5645,0-0.9678,0.0557-1.1553,0.1113V190.6582z"/>
	<path class="st8" d="M144.6924,191.2461h-3.5225v3.4043h3.9258v1.0225H140v-9.4414h4.8936v1.0225h-3.7236v2.9844h3.5225V191.2461z"
		/>
	<path class="st8" d="M154.2881,195.3643c-0.4297,0.2246-1.29,0.4482-2.3926,0.4482c-2.5547,0-4.4766-1.6807-4.4766-4.7764
		c0-2.9551,1.9219-4.958,4.7314-4.958c1.1299,0,1.8418,0.252,2.1514,0.4199l-0.2822,0.9941
		c-0.4443-0.2236-1.0762-0.3916-1.8281-0.3916c-2.124,0-3.5361,1.4141-3.5361,3.8936c0,2.3115,1.2773,3.7959,3.4824,3.7959
		c0.7119,0,1.4375-0.1533,1.9082-0.3916L154.2881,195.3643z"/>
	<path class="st8" d="M164.5566,190.8545c0,3.25-1.8955,4.9727-4.208,4.9727c-2.3926,0-4.0732-1.9336-4.0732-4.791
		c0-2.9971,1.7881-4.958,4.208-4.958C162.957,186.0781,164.5566,188.0527,164.5566,190.8545z M157.5264,191.0088
		c0,2.0166,1.0479,3.8232,2.8896,3.8232c1.8555,0,2.9033-1.7783,2.9033-3.9219c0-1.877-0.9404-3.8379-2.8896-3.8379
		C158.4941,187.0723,157.5264,188.9355,157.5264,191.0088z"/>
	<path class="st8" d="M167.417,186.3574c0.5918-0.126,1.4385-0.1953,2.2451-0.1953c1.25,0,2.0566,0.2373,2.6211,0.7705
		c0.457,0.4199,0.7129,1.0645,0.7129,1.793c0,1.2461-0.7529,2.0723-1.707,2.4092v0.042c0.6982,0.252,1.1152,0.9238,1.3301,1.9043
		c0.2959,1.3174,0.5117,2.2275,0.6992,2.5918h-1.21c-0.1475-0.2666-0.3496-1.0781-0.6045-2.2549
		c-0.2686-1.3027-0.7529-1.793-1.8145-1.835h-1.1025v4.0898h-1.1699V186.3574z M168.5869,190.6582h1.1963
		c1.25,0,2.043-0.7148,2.043-1.793c0-1.2188-0.8467-1.751-2.083-1.7646c-0.5654,0-0.9678,0.0557-1.1563,0.1113V190.6582z"/>
	<path class="st8" d="M175.9922,186.3574c0.7129-0.1113,1.5596-0.1953,2.4873-0.1953c1.6807,0,2.877,0.4063,3.6699,1.1758
		c0.8066,0.7705,1.2773,1.8633,1.2773,3.3906c0,1.54-0.457,2.8008-1.3047,3.6699c-0.8467,0.8818-2.2451,1.3584-4.0059,1.3584
		c-0.833,0-1.5322-0.042-2.124-0.1123V186.3574z M177.1621,194.7061c0.2959,0.0566,0.7256,0.0703,1.1826,0.0703
		c2.501,0,3.8584-1.457,3.8584-4.0059c0.0137-2.2275-1.1963-3.6426-3.6699-3.6426c-0.6055,0-1.0625,0.0566-1.3711,0.126V194.7061z"
		/>
	<path class="st8" d="M187.4561,186.2314v9.4414h-1.1699v-9.4414H187.4561z"/>
	<path class="st8" d="M190.8428,195.6729v-9.4414h1.2773l2.9033,4.7773c0.6729,1.1064,1.1963,2.1006,1.627,3.0674l0.0264-0.0146
		c-0.1074-1.2598-0.1338-2.4092-0.1338-3.8799v-3.9502h1.1025v9.4414h-1.1836l-2.877-4.791
		c-0.6318-1.0498-1.2363-2.1289-1.6934-3.1514l-0.04,0.0137c0.0664,1.1914,0.0938,2.3252,0.0938,3.8945v4.0342H190.8428z"/>
	<path class="st8" d="M207.9268,195.2529c-0.5244,0.1953-1.5596,0.5176-2.7832,0.5176c-1.3711,0-2.5-0.3643-3.3867-1.2461
		c-0.7803-0.7842-1.2637-2.0449-1.2637-3.5156c0.0127-2.8164,1.8682-4.875,4.9063-4.875c1.0488,0,1.8682,0.2383,2.2588,0.4346
		l-0.2822,0.9941c-0.4844-0.2246-1.0889-0.4063-2.0039-0.4063c-2.2041,0-3.6426,1.4287-3.6426,3.7959
		c0,2.3955,1.3848,3.8105,3.4951,3.8105c0.7666,0,1.291-0.1123,1.5596-0.2529v-2.8154h-1.8418v-0.9805h2.9844V195.2529z"/>
	<path class="st8" d="M216.7148,192.7031l-0.9414,2.9697h-1.21l3.0781-9.4414h1.4121l3.0918,9.4414h-1.25l-0.9678-2.9697H216.7148z
		 M219.6855,191.751l-0.8877-2.7178c-0.2012-0.6162-0.3359-1.1768-0.4697-1.7227h-0.0273c-0.1348,0.5605-0.2822,1.1348-0.457,1.709
		l-0.8877,2.7314H219.6855z"/>
	<path class="st8" d="M224.8184,186.3438c0.5645-0.0977,1.3037-0.1816,2.2451-0.1816c1.1563,0,2.0029,0.2793,2.541,0.7842
		c0.4971,0.4482,0.793,1.1348,0.793,1.9746c0,0.8545-0.2422,1.5273-0.6992,2.0176c-0.6182,0.6865-1.627,1.0361-2.7695,1.0361
		c-0.3496,0-0.6719-0.0137-0.9404-0.084v3.7822h-1.1699V186.3438z M225.9883,190.8965c0.2549,0.0693,0.5781,0.0977,0.9678,0.0977
		c1.4111,0,2.2715-0.7139,2.2715-2.0166c0-1.2471-0.8467-1.8496-2.1367-1.8496c-0.5117,0-0.9014,0.042-1.1025,0.0986V190.8965z"/>
	<path class="st8" d="M233.3125,186.3438c0.5645-0.0977,1.3037-0.1816,2.2451-0.1816c1.1563,0,2.0029,0.2793,2.541,0.7842
		c0.4971,0.4482,0.793,1.1348,0.793,1.9746c0,0.8545-0.2422,1.5273-0.6992,2.0176c-0.6182,0.6865-1.627,1.0361-2.7695,1.0361
		c-0.3496,0-0.6719-0.0137-0.9404-0.084v3.7822h-1.1699V186.3438z M234.4824,190.8965c0.2549,0.0693,0.5781,0.0977,0.9678,0.0977
		c1.4111,0,2.2715-0.7139,2.2715-2.0166c0-1.2471-0.8467-1.8496-2.1367-1.8496c-0.5117,0-0.9014,0.042-1.1025,0.0986V190.8965z"/>
</g>
<path class="st2" d="M151.6182,37.0986c8.3818,0,16.1455,1.7256,22.5342,4.6582c0.3047-1.1865,0.4658-2.4131,0.4658-3.6699
	c0-10.1963-10.5225-18.4609-23.5005-18.4609c-12.9785,0-23.5,8.2646-23.5,18.4609c0,1.4033,0.2061,2.7686,0.5835,4.082
	C134.7495,38.9844,142.8481,37.0986,151.6182,37.0986z"/>
<g>
</g>
<g>
</g>
<g>
</g>
<g>
</g>
<g>
</g>
<g>
</g>
</svg>
