<?xml version="1.0" encoding="utf-8"?>
<!-- Generator: Adobe Illustrator 15.1.0, SVG Export Plug-In . SVG Version: 6.00 Build 0)  -->
<!DOCTYPE svg PUBLIC "-//W3C//DTD SVG 1.1//EN" "http://www.w3.org/Graphics/SVG/1.1/DTD/svg11.dtd">
<svg version="1.1" id="Layer_1" xmlns="http://www.w3.org/2000/svg" xmlns:xlink="http://www.w3.org/1999/xlink" x="0px" y="0px"
	 width="176px" height="208px" viewBox="0 0 176 208" enable-background="new 0 0 176 208" xml:space="preserve">
<g>
	<path fill="#39B54A" d="M9.331,122.752c0.053,1.605-1.124,2.889-2.996,2.889c-1.658,0-2.835-1.283-2.835-2.889
		c0-1.658,1.23-2.942,2.942-2.942C8.207,119.81,9.331,121.094,9.331,122.752z M4.088,155.92v-25.892h4.708v25.892H4.088z"/>
	<path fill="#FFFFFF" d="M49.559,154.316c-2.086,0.748-6.206,1.979-11.074,1.979c-5.457,0-9.95-1.392-13.481-4.762
		c-3.103-2.995-5.029-7.811-5.029-13.427c0.054-10.753,7.437-18.618,19.526-18.618c4.173,0,7.436,0.91,8.987,1.659l-1.123,3.798
		c-1.926-0.855-4.333-1.552-7.971-1.552c-8.774,0-14.498,5.457-14.498,14.498c0,9.148,5.51,14.55,13.909,14.55
		c3.049,0,5.137-0.428,6.206-0.962v-10.754h-7.329v-3.743h11.876L49.559,154.316L49.559,154.316z"/>
	<path fill="#FFFFFF" d="M62.02,119.862h4.654v32.151h15.407v3.906H62.02V119.862z"/>
	<path d="M121.346,137.517c0,12.413-7.543,18.992-16.745,18.992c-9.522,0-16.209-7.382-16.209-18.295
		c0-11.45,7.115-18.938,16.744-18.938C114.979,119.275,121.346,126.818,121.346,137.517z M93.364,138.106
		c0,7.704,4.175,14.604,11.504,14.604c7.383,0,11.555-6.793,11.555-14.979c0-7.168-3.744-14.658-11.502-14.658
		C97.217,123.073,93.364,130.188,93.364,138.106z"/>
	<path fill="#FFFFFF" d="M138.62,155.92l-9.147-36.057h4.922l4.279,18.244c1.069,4.492,2.033,8.987,2.674,12.463h0.107
		c0.59-3.584,1.714-7.863,2.943-12.519l4.814-18.188h4.868l4.387,18.296c1.016,4.28,1.979,8.56,2.515,12.358h0.107
		c0.749-3.959,1.767-7.972,2.89-12.465l4.761-18.189h4.76l-10.218,36.058h-4.866l-4.549-18.776c-1.124-4.601-1.872-8.13-2.355-11.77
		h-0.105c-0.642,3.584-1.444,7.115-2.782,11.77l-5.136,18.776L138.62,155.92L138.62,155.92z"/>
</g>
<circle fill="#6CBE45" cx="105.111" cy="137.556" r="21.331"/>
<path fill="#3C3C3C" d="M85.072,110.271c-4.616,3.189-8.823,6.201-13.146,9.037c-2.146,1.408-3.645,0.959-4.067-1.928
	c-1.695-11.606-1.896-23.174,0.954-34.628c2.425-9.748,8.204-16.975,16.879-22.043c1.375-0.803,2.343-2.541,3.146-4.035
	c1.22-2.271,1.673-5.093,3.275-6.987c2.644-3.123,2.147-8.279,6.547-5.928c3.734-1.776,8.854-2.229,13.203,0.274
	c3.529-2.234,3.717,2.899,6.076,5.344c0.994,1.029,1.903,2.48,2.121,3.855c0.771,4.841,3.896,7.374,7.811,9.856
	c7.195,4.56,11.495,11.466,13.529,19.695c2.802,11.333,2.688,22.765,0.98,34.253c-0.484,3.269-1.98,3.8-4.492,2.096
	c-4.177-2.832-8.268-5.786-12.558-8.804c-1.732,3.815-3.4,7.776-5.308,11.616c-2.731,5.499-6.496,10.156-11.47,13.874
	c-2.516,1.88-4.539,1.718-6.995-0.063c-6.778-4.918-10.804-11.77-13.978-19.261C86.721,114.464,85.931,112.404,85.072,110.271z
	 M107.538,59.39c-4.092,23.396,16.772,47.732,30.87,55.117c0.242-0.696,0.701-1.378,0.675-2.042
	c-0.385-9.356,0.154-18.887-1.479-28.026C134.604,67.66,118.768,60.225,107.538,59.39z M71.257,114.896
	c18.392-10.535,35.595-35.481,31.254-55.792c-10.604,1.822-20.046,5.864-25.87,15.309C68.996,86.817,70.378,100.622,71.257,114.896z
	 M118.119,116.011c0.85-2.112,1.369-3.896,2.246-5.479c1.856-3.351,0.23-4.866-2.71-6.09c-6.387-2.654-12.956-3.038-19.648-1.748
	c-9.418,1.811-10.585,4.36-6.019,12.76c0.053,0.099,0.197,0.147,0.556,0.397C100.734,112.464,109.189,112.425,118.119,116.011z
	 M93.192,120.489c3.827,4.191,7.031,7.828,10.429,11.274c0.506,0.512,2.233,0.557,2.868,0.096c4.109-2.989,7.289-6.796,9.571-11.734
	C108.72,117.197,101.717,117.184,93.192,120.489z M116.57,56.874c-1.836-6.592-6.384-10.264-11.846-10.074
	c-5.307,0.186-9.748,4.172-10.86,10.036C101.307,53.997,108.691,53.954,116.57,56.874z M113.781,97.592
	c-4.679-8.54-5.651-9.475-10.265-8.595c-4.692,0.895-4.452,5.682-7.178,8.595C102.588,97.592,108.082,97.592,113.781,97.592z"/>
<path fill="#D9BD9D" d="M107.538,59.39c11.229,0.835,27.065,8.271,30.065,25.049c1.634,9.139,1.096,18.67,1.479,28.026
	c0.026,0.664-0.433,1.347-0.675,2.042C124.311,107.122,103.446,82.786,107.538,59.39z"/>
<path fill="#D9BD9D" d="M71.257,114.896c-0.879-14.274-2.26-28.079,5.385-40.483c5.823-9.446,15.266-13.487,25.87-15.309
	C106.852,79.415,89.649,104.361,71.257,114.896z"/>
<path fill="#C49A6C" d="M118.119,116.011c-8.931-3.586-17.385-3.547-25.575-0.16c-0.358-0.25-0.503-0.299-0.556-0.397
	c-4.567-8.399-3.4-10.95,6.019-12.76c6.692-1.289,13.262-0.907,19.648,1.748c2.94,1.224,4.566,2.74,2.71,6.09
	C119.488,112.115,118.969,113.898,118.119,116.011z"/>
<path fill="#39B54A" d="M93.192,120.489c8.525-3.306,15.527-3.292,22.868-0.364c-2.282,4.938-5.462,8.745-9.571,11.734
	c-0.635,0.461-2.363,0.417-2.868-0.096C100.224,128.317,97.02,124.681,93.192,120.489z"/>
<path fill="#C49A6C" d="M116.57,56.874c-7.879-2.92-15.264-2.877-22.706-0.038c1.111-5.863,5.554-9.85,10.859-10.036
	C110.188,46.61,114.735,50.282,116.57,56.874z"/>
<path fill="#C49A6C" d="M113.781,97.592c-5.699,0-11.192,0-17.443,0c2.727-2.914,2.485-7.701,7.179-8.595
	C108.129,88.117,109.103,89.052,113.781,97.592z"/>
<line fill="none" stroke="#6D5D47" stroke-width="5" stroke-linecap="round" stroke-miterlimit="10" x1="97.728" y1="46.28" x2="89.991" y2="37.262"/>
<line fill="none" stroke="#6D5D47" stroke-width="5" stroke-linecap="round" stroke-miterlimit="10" x1="112.935" y1="46.057" x2="120.671" y2="37.039"/>
<g>
	<path fill="#D1D3D4" d="M4.787,165.753v4.151c0,1.572,0.669,2.238,1.568,2.238c1,0,1.638-0.687,1.638-2.238v-4.151h0.879v4.09
		c0,2.153-1.088,3.04-2.547,3.04c-1.378,0-2.417-0.823-2.417-2.998v-4.132H4.787L4.787,165.753z"/>
	<path fill="#D1D3D4" d="M11.377,165.753h0.87v3.382h0.029c0.18-0.271,0.359-0.52,0.529-0.749l2.059-2.633h1.079l-2.437,2.977
		l2.626,4.038h-1.028l-2.217-3.444l-0.639,0.771v2.674h-0.869L11.377,165.753L11.377,165.753z"/>
	<path fill="#D1D3D4" d="M26.026,172.454c-0.389,0.146-1.159,0.387-2.067,0.387c-1.019,0-1.857-0.271-2.518-0.926
		c-0.578-0.584-0.939-1.521-0.939-2.613c0.01-2.092,1.389-3.622,3.646-3.622c0.779,0,1.388,0.178,1.678,0.324l-0.209,0.737
		c-0.359-0.167-0.809-0.302-1.488-0.302c-1.637,0-2.707,1.063-2.707,2.821c0,1.779,1.029,2.831,2.597,2.831
		c0.568,0,0.958-0.083,1.158-0.188v-2.091H23.81v-0.728h2.217V172.454L26.026,172.454z"/>
	<path fill="#D1D3D4" d="M28.352,165.753h0.869v6.255h2.875v0.76h-3.745V165.753z"/>
	<path fill="#D1D3D4" d="M39.426,169.188c0,2.414-1.409,3.694-3.126,3.694c-1.778,0-3.025-1.437-3.025-3.56
		c0-2.228,1.328-3.684,3.125-3.684C38.238,165.64,39.426,167.105,39.426,169.188z M34.204,169.302c0,1.498,0.779,2.84,2.147,2.84
		c1.377,0,2.157-1.319,2.157-2.914c0-1.395-0.699-2.852-2.148-2.852C34.922,166.377,34.204,167.762,34.204,169.302z"/>
	<path fill="#D1D3D4" d="M42.65,172.768l-1.708-7.015h0.919l0.799,3.549c0.2,0.874,0.38,1.749,0.499,2.425h0.021
		c0.109-0.697,0.319-1.531,0.549-2.435l0.898-3.539h0.909l0.82,3.56c0.19,0.832,0.37,1.665,0.469,2.403h0.021
		c0.14-0.769,0.329-1.551,0.539-2.425l0.889-3.539h0.888l-1.907,7.015h-0.909l-0.85-3.654c-0.209-0.894-0.349-1.581-0.438-2.288
		h-0.021c-0.12,0.697-0.27,1.382-0.519,2.288l-0.958,3.654L42.65,172.768L42.65,172.768z"/>
	<path fill="#D1D3D4" d="M52.865,169.615v0.675h-2.466v-0.675H52.865z"/>
	<path fill="#D1D3D4" d="M55.912,172.768l-1.708-7.015h0.918l0.798,3.549c0.201,0.874,0.381,1.749,0.5,2.425h0.02
		c0.11-0.697,0.321-1.531,0.549-2.435l0.899-3.539h0.909l0.82,3.56c0.189,0.832,0.369,1.665,0.469,2.403h0.019
		c0.14-0.769,0.329-1.551,0.541-2.425l0.888-3.539h0.889l-1.907,7.015h-0.91l-0.849-3.654c-0.21-0.894-0.35-1.581-0.44-2.288h-0.02
		c-0.12,0.697-0.27,1.382-0.519,2.288l-0.959,3.654L55.912,172.768L55.912,172.768z"/>
	<path fill="#D1D3D4" d="M70.011,169.188c0,2.414-1.409,3.694-3.126,3.694c-1.778,0-3.026-1.437-3.026-3.56
		c0-2.228,1.328-3.684,3.127-3.684C68.823,165.64,70.011,167.105,70.011,169.188z M64.788,169.302c0,1.498,0.778,2.84,2.147,2.84
		c1.378,0,2.157-1.319,2.157-2.914c0-1.395-0.699-2.852-2.148-2.852C65.507,166.377,64.788,167.762,64.788,169.302z"/>
	<path fill="#D1D3D4" d="M72.137,165.846c0.439-0.093,1.068-0.145,1.667-0.145c0.929,0,1.528,0.177,1.948,0.573
		c0.339,0.312,0.529,0.79,0.529,1.331c0,0.927-0.559,1.54-1.269,1.789v0.032c0.52,0.188,0.829,0.688,0.99,1.415
		c0.22,0.978,0.379,1.654,0.519,1.926h-0.898c-0.111-0.199-0.261-0.802-0.45-1.677c-0.2-0.968-0.561-1.332-1.348-1.362h-0.819v3.039
		h-0.869V165.846z M73.006,169.041h0.889c0.929,0,1.518-0.531,1.518-1.332c0-0.905-0.63-1.3-1.548-1.31
		c-0.419,0-0.719,0.04-0.859,0.081V169.041L73.006,169.041z"/>
	<path fill="#D1D3D4" d="M84.181,169.688c-0.05-0.979-0.11-2.155-0.101-3.028h-0.03c-0.23,0.82-0.509,1.696-0.849,2.664
		l-1.188,3.402h-0.66l-1.088-3.34c-0.321-0.988-0.589-1.894-0.78-2.727h-0.02c-0.02,0.873-0.07,2.05-0.13,3.101l-0.179,3.008h-0.829
		l0.469-7.014h1.108l1.149,3.392c0.28,0.864,0.509,1.635,0.679,2.364h0.03c0.17-0.709,0.409-1.479,0.708-2.364l1.199-3.392h1.108
		l0.42,7.014h-0.849L84.181,169.688z"/>
	<path fill="#D1D3D4" d="M90.648,165.846c0.44-0.093,1.068-0.145,1.669-0.145c0.929,0,1.528,0.177,1.946,0.573
		c0.34,0.312,0.529,0.79,0.529,1.331c0,0.927-0.559,1.54-1.268,1.789v0.032c0.52,0.188,0.83,0.688,0.989,1.415
		c0.219,0.978,0.378,1.654,0.519,1.926h-0.899c-0.107-0.199-0.259-0.802-0.447-1.677c-0.201-0.968-0.56-1.332-1.351-1.362h-0.817
		v3.039h-0.87V165.846L90.648,165.846z M91.519,169.041h0.888c0.929,0,1.52-0.531,1.52-1.332c0-0.905-0.629-1.3-1.55-1.31
		c-0.418,0-0.718,0.04-0.857,0.081V169.041z"/>
	<path fill="#D1D3D4" d="M100.504,169.479h-2.616v2.529h2.917v0.76h-3.786v-7.015h3.638v0.758h-2.769v2.218h2.616V169.479
		L100.504,169.479z"/>
	<path fill="#D1D3D4" d="M107.635,172.539c-0.321,0.167-0.958,0.332-1.779,0.332c-1.898,0-3.326-1.249-3.326-3.548
		c0-2.195,1.428-3.684,3.517-3.684c0.839,0,1.367,0.187,1.598,0.311l-0.21,0.739c-0.329-0.166-0.799-0.29-1.357-0.29
		c-1.578,0-2.627,1.05-2.627,2.893c0,1.718,0.948,2.82,2.587,2.82c0.528,0,1.068-0.114,1.417-0.292L107.635,172.539z"/>
	<path fill="#D1D3D4" d="M115.264,169.188c0,2.414-1.409,3.694-3.126,3.694c-1.777,0-3.027-1.437-3.027-3.56
		c0-2.228,1.329-3.684,3.128-3.684C114.075,165.64,115.264,167.105,115.264,169.188z M110.039,169.302c0,1.498,0.78,2.84,2.149,2.84
		c1.377,0,2.155-1.319,2.155-2.914c0-1.395-0.697-2.852-2.146-2.852C110.76,166.377,110.039,167.762,110.039,169.302z"/>
	<path fill="#D1D3D4" d="M117.389,165.846c0.44-0.093,1.069-0.145,1.669-0.145c0.928,0,1.527,0.177,1.946,0.573
		c0.34,0.312,0.529,0.79,0.529,1.331c0,0.927-0.559,1.54-1.269,1.789v0.032c0.52,0.188,0.828,0.688,0.989,1.415
		c0.22,0.978,0.38,1.654,0.52,1.926h-0.9c-0.109-0.199-0.259-0.802-0.448-1.677c-0.199-0.968-0.56-1.332-1.348-1.362h-0.819v3.039
		h-0.869V165.846L117.389,165.846z M118.258,169.041h0.889c0.929,0,1.518-0.531,1.518-1.332c0-0.905-0.63-1.3-1.547-1.31
		c-0.42,0-0.719,0.04-0.859,0.081V169.041L118.258,169.041z"/>
	<path fill="#D1D3D4" d="M123.76,165.846c0.529-0.082,1.159-0.145,1.847-0.145c1.25,0,2.138,0.303,2.727,0.873
		c0.6,0.573,0.95,1.385,0.95,2.521c0,1.145-0.341,2.081-0.97,2.727c-0.63,0.656-1.669,1.009-2.976,1.009
		c-0.62,0-1.14-0.032-1.579-0.083L123.76,165.846L123.76,165.846z M124.629,172.05c0.219,0.042,0.54,0.052,0.879,0.052
		c1.857,0,2.866-1.082,2.866-2.976c0.011-1.657-0.889-2.708-2.728-2.708c-0.448,0-0.788,0.044-1.018,0.093V172.05z"/>
	<path fill="#D1D3D4" d="M132.277,165.753v7.015h-0.869v-7.015H132.277z"/>
	<path fill="#D1D3D4" d="M134.793,172.768v-7.015h0.948l2.157,3.549c0.499,0.821,0.889,1.561,1.209,2.279l0.019-0.011
		c-0.079-0.938-0.1-1.791-0.1-2.884v-2.935h0.82v7.015h-0.88l-2.138-3.561c-0.469-0.779-0.919-1.58-1.259-2.34l-0.028,0.009
		c0.049,0.887,0.069,1.729,0.069,2.895v2.998H134.793z"/>
	<path fill="#D1D3D4" d="M147.485,172.454c-0.391,0.146-1.159,0.387-2.066,0.387c-1.02,0-1.857-0.271-2.517-0.926
		c-0.581-0.584-0.939-1.521-0.939-2.613c0.01-2.092,1.388-3.622,3.644-3.622c0.78,0,1.389,0.178,1.68,0.324l-0.21,0.737
		c-0.358-0.167-0.81-0.302-1.488-0.302c-1.639,0-2.708,1.063-2.708,2.821c0,1.779,1.028,2.831,2.598,2.831
		c0.57,0,0.959-0.083,1.158-0.188v-2.091h-1.369v-0.728h2.219V172.454L147.485,172.454z"/>
	<path fill="#D1D3D4" d="M154.015,170.56l-0.7,2.208h-0.897l2.286-7.014h1.05l2.297,7.014h-0.93l-0.719-2.208H154.015z
		 M156.222,169.854l-0.66-2.021c-0.148-0.457-0.249-0.873-0.349-1.279h-0.021c-0.1,0.416-0.208,0.844-0.339,1.27l-0.66,2.03H156.222
		L156.222,169.854z"/>
	<path fill="#D1D3D4" d="M160.035,165.836c0.418-0.073,0.969-0.135,1.667-0.135c0.858,0,1.488,0.207,1.888,0.582
		c0.37,0.332,0.59,0.844,0.59,1.468c0,0.635-0.181,1.135-0.521,1.5c-0.459,0.509-1.208,0.77-2.058,0.77
		c-0.26,0-0.499-0.012-0.697-0.063v2.811h-0.869V165.836L160.035,165.836z M160.904,169.219c0.189,0.051,0.429,0.073,0.719,0.073
		c1.048,0,1.687-0.531,1.687-1.498c0-0.927-0.629-1.376-1.587-1.376c-0.381,0-0.669,0.03-0.82,0.074v2.727H160.904z"/>
	<path fill="#D1D3D4" d="M166.346,165.836c0.419-0.073,0.969-0.135,1.668-0.135c0.858,0,1.487,0.207,1.889,0.582
		c0.368,0.332,0.589,0.844,0.589,1.468c0,0.635-0.181,1.135-0.52,1.5c-0.46,0.509-1.208,0.77-2.059,0.77
		c-0.261,0-0.499-0.012-0.698-0.063v2.811h-0.869V165.836L166.346,165.836z M167.215,169.219c0.189,0.051,0.43,0.073,0.72,0.073
		c1.047,0,1.687-0.531,1.687-1.498c0-0.927-0.63-1.376-1.588-1.376c-0.381,0-0.669,0.03-0.82,0.074v2.727H167.215z"/>
</g>
<path fill="#D9BD9D" stroke="#594A42" stroke-width="5" stroke-miterlimit="10" d="M105.651,54.956
	c6.227,0,11.994,1.282,16.741,3.46c0.227-0.881,0.347-1.792,0.347-2.726c0-7.575-7.818-13.716-17.46-13.716
	c-9.643,0-17.46,6.141-17.46,13.716c0,1.042,0.153,2.058,0.434,3.032C93.119,56.356,99.136,54.956,105.651,54.956z"/>
</svg>
