<?xml version="1.0" standalone="no"?>
<!DOCTYPE svg PUBLIC "-//W3C//DTD SVG 20010904//EN"
 "http://www.w3.org/TR/2001/REC-SVG-20010904/DTD/svg10.dtd">
<svg version="1.0" xmlns="http://www.w3.org/2000/svg"
 width="241.000000pt" height="189.000000pt" viewBox="0 0 241.000000 189.000000"
 preserveAspectRatio="xMidYMid meet">

<g transform="translate(0.000000,189.000000) scale(0.100000,-0.100000)"
fill="#000000" stroke="none">
<path d="M1304 1746 c-53 -25 -88 -63 -99 -109 -8 -32 -12 -31 62 -12 72 19
222 19 293 1 30 -8 57 -13 59 -11 2 2 1 15 -3 28 -26 104 -192 159 -312 103z"/>
<path d="M1370 1157 c-14 -7 -38 -36 -53 -65 l-28 -52 115 0 c125 0 131 3 99
50 -50 76 -83 93 -133 67z"/>
<path d="M1330 984 c-124 -24 -154 -63 -113 -149 19 -40 14 -39 77 -20 64 19
169 19 235 -1 29 -8 54 -14 56 -12 2 2 12 26 24 54 17 45 18 54 5 72 -7 11
-35 28 -61 37 -49 17 -177 28 -223 19z"/>
</g>
</svg>
