<?xml version="1.0" encoding="utf-8"?>
<!-- Generator: Adobe Illustrator 15.1.0, SVG Export Plug-In . SVG Version: 6.00 Build 0)  -->
<!DOCTYPE svg PUBLIC "-//W3C//DTD SVG 1.1//EN" "http://www.w3.org/Graphics/SVG/1.1/DTD/svg11.dtd">
<svg version="1.1" id="Layer_1" xmlns="http://www.w3.org/2000/svg" xmlns:xlink="http://www.w3.org/1999/xlink" x="0px" y="0px"
	 width="595.281px" height="841.891px" viewBox="0 0 595.281 841.891" enable-background="new 0 0 595.281 841.891"
	 xml:space="preserve">
<rect y="123.305" fill="#85D4EA" width="595.279" height="595.278"/>
<g>
	<g>
		<path fill="none" stroke="#000000" stroke-miterlimit="10" d="M220.343,342.562c-0.398-0.211-0.703-0.445-0.914-0.703
			s-0.381-0.539-0.51-0.844s-0.229-0.65-0.299-1.037s-0.123-0.938-0.158-1.652s-0.053-1.729-0.053-3.041v-24.996h-4.395
			l-9.668,0.281v2.391c0.797,0.164,1.447,0.357,1.951,0.58s0.902,0.545,1.195,0.967s0.492,0.984,0.598,1.688
			s0.158,1.629,0.158,2.777v16.348c0,2.227-0.076,3.762-0.229,4.605s-0.445,1.512-0.879,2.004s-1.225,0.891-2.373,1.195v2.32h17.156
			v-2.32C221.269,342.961,220.742,342.773,220.343,342.562z"/>
		<rect x="208.496" y="296.543" fill="none" stroke="#000000" stroke-miterlimit="10" width="9.633" height="8.613"/>
	</g>
	<path fill="none" stroke="#000000" stroke-miterlimit="10" d="M250.929,323.261v2.32c1.008,0.305,1.711,0.574,2.109,0.809
		s0.721,0.539,0.967,0.914s0.428,0.943,0.545,1.705s0.176,2.033,0.176,3.814v1.336c0,2.695-0.492,4.658-1.477,5.889
		s-2.508,1.846-4.57,1.846c-2.086,0-3.838-0.832-5.256-2.496s-2.473-4.002-3.164-7.014s-1.037-6.568-1.037-10.67
		c0-4.758,0.516-8.689,1.547-11.795s2.438-5.367,4.219-6.785s3.832-2.127,6.152-2.127c1.711,0,3.111,0.264,4.201,0.791
		s1.98,1.324,2.672,2.391s1.307,2.584,1.846,4.553h4.816v-9.984c-4.289-1.242-9-1.863-14.133-1.863c-3.047,0-5.9,0.463-8.561,1.389
		s-5.051,2.402-7.172,4.43s-3.779,4.658-4.975,7.893s-1.793,6.984-1.793,11.25c0,8.109,1.682,14.162,5.045,18.158
		s8.467,5.994,15.311,5.994c3.609,0,6.809-0.855,9.598-2.566l2.391,2.531l5.063-1.055v-13.254c0-1.336,0.076-2.373,0.229-3.111
		s0.439-1.33,0.861-1.775s1.219-0.844,2.391-1.195v-2.32H250.929z"/>
	<path fill="none" stroke="#000000" stroke-miterlimit="10" d="M288.212,341.912c-0.434-0.504-0.721-1.178-0.861-2.021
		s-0.211-2.379-0.211-4.605v-40.184h-4.395l-9.738,0.492v2.32c0.984,0.188,1.699,0.398,2.145,0.633s0.791,0.545,1.037,0.932
		s0.422,0.902,0.527,1.547s0.176,1.441,0.211,2.391s0.053,2.432,0.053,4.447v27.422c0,1.5-0.023,2.654-0.07,3.463
		s-0.152,1.441-0.316,1.898s-0.357,0.832-0.58,1.125s-0.533,0.551-0.932,0.773s-0.949,0.416-1.652,0.58v2.32h17.227v-2.32
		C289.46,342.82,288.646,342.416,288.212,341.912z"/>
	<g>
		<path fill="none" stroke="#000000" stroke-miterlimit="10" d="M313.648,313.664c-1.594,0-2.871,0.504-3.832,1.512
			s-1.664,2.52-2.109,4.535s-0.668,4.605-0.668,7.77c0,4.969,0.557,8.689,1.67,11.162s2.795,3.709,5.045,3.709
			c1.242,0,2.279-0.316,3.111-0.949s1.5-1.547,2.004-2.742s0.861-2.631,1.072-4.307s0.316-3.557,0.316-5.643
			c0-5.039-0.557-8.807-1.67-11.303S315.828,313.664,313.648,313.664z"/>
		<path fill="none" stroke="#000000" stroke-miterlimit="10" d="M326.621,314.49c-2.883-2.988-7.16-4.482-12.832-4.482
			c-2.508,0-4.834,0.357-6.979,1.072s-3.99,1.822-5.537,3.322s-2.754,3.398-3.621,5.695s-1.301,5.016-1.301,8.156
			c0,4.102,0.703,7.482,2.109,10.143s3.357,4.594,5.854,5.801s5.467,1.811,8.912,1.811c3.656,0,6.809-0.668,9.457-2.004
			s4.688-3.381,6.117-6.135s2.145-6.17,2.145-10.248C330.945,321.855,329.503,317.478,326.621,314.49z M319.941,334.353
			c-0.211,1.676-0.568,3.111-1.072,4.307s-1.172,2.109-2.004,2.742s-1.869,0.949-3.111,0.949c-2.25,0-3.932-1.236-5.045-3.709
			s-1.67-6.193-1.67-11.162c0-3.164,0.223-5.754,0.668-7.77s1.148-3.527,2.109-4.535s2.238-1.512,3.832-1.512
			c2.18,0,3.826,1.248,4.939,3.744s1.67,6.264,1.67,11.303C320.257,330.797,320.152,332.677,319.941,334.353z"/>
	</g>
	<path fill="none" stroke="#000000" stroke-miterlimit="10" d="M376.824,310.57v2.32c1.031,0.164,1.828,0.568,2.391,1.213
		s0.844,1.459,0.844,2.443c0,0.656-0.088,1.418-0.264,2.285s-0.498,1.934-0.967,3.199l-4.605,12.691l-6.82-24.152h-6.539
		l-8.086,24.152l-4.395-14.59c-0.234-0.797-0.445-1.553-0.633-2.268s-0.281-1.365-0.281-1.951c0-0.867,0.275-1.541,0.826-2.021
		s1.377-0.814,2.479-1.002v-2.32h-17.191v2.32c0.75,0.164,1.348,0.451,1.793,0.861s0.844,0.984,1.195,1.723s0.785,1.928,1.301,3.568
		l8.543,26.754h7.102l7.699-22.676l6.609,22.676h7.031l9.457-24.293c0.82-2.086,1.447-3.598,1.881-4.535s0.82-1.652,1.16-2.145
		s0.703-0.879,1.09-1.16s0.932-0.527,1.635-0.738v-2.355H376.824z"/>
</g>
<text transform="matrix(1 0 0 1 219.4858 365.4451)" font-family="'MicrosoftPhagsPa-Bold'" font-size="14">Fireflies &amp; glow-worm</text>
<g id="Layer-1" transform="matrix(0.700888,0,0,0.700888,1364.21,2378.62)">
	<path fill="#91A71C" d="M-1504.14-2462.276c-2.608,0-5.194-0.635-7.499-1.847c-0.128-0.095-0.242-0.189-0.359-0.283
		c-0.131-0.102-0.265-0.203-0.385-0.304c-0.12-0.102-0.226-0.202-0.337-0.304c-0.106-0.096-0.22-0.192-0.318-0.288
		c-0.109-0.106-0.198-0.21-0.295-0.313c-0.086-0.091-0.178-0.183-0.254-0.272c-0.095-0.11-0.17-0.217-0.251-0.325
		c-0.064-0.085-0.139-0.17-0.195-0.254c-0.078-0.113-0.137-0.224-0.201-0.336c-0.045-0.078-0.1-0.157-0.139-0.234
		c-0.061-0.12-0.1-0.237-0.148-0.355c-0.028-0.068-0.064-0.138-0.086-0.206c-0.042-0.132-0.064-0.263-0.089-0.394
		c-0.011-0.053-0.031-0.106-0.036-0.157c-0.025-0.182-0.031-0.364-0.02-0.543c0.184-2.9,4.913-5.55,8.714-7.68
		c0.808-0.453,1.591-0.89,2.307-1.315c0.719-0.428,1.508-0.867,2.318-1.32c4.314-2.41,9.204-5.141,9.461-8.891
		c0.011-0.16,0.011-0.319,0.003-0.479c0-0.044-0.003-0.091-0.006-0.135c-0.008-0.127-0.022-0.252-0.042-0.376
		c-0.006-0.028-0.006-0.054-0.008-0.081c2.516,2.885,3.965,6.624,3.965,10.588C-1488.039-2469.5-1495.262-2462.276-1504.14-2462.276
		 M-1520.247-2478.381c0-8.878,7.226-16.103,16.107-16.103c2.589,0,5.161,0.628,7.457,1.828v0.001
		c2.176,1.64,3.23,3.203,3.132,4.647c-0.195,2.884-4.879,5.499-8.641,7.601c-0.825,0.461-1.625,0.907-2.355,1.34
		c-0.708,0.419-1.477,0.851-2.274,1.297c-4.355,2.44-9.293,5.207-9.53,8.977c-0.011,0.148-0.011,0.295-0.006,0.442
		c0.003,0.044,0.006,0.089,0.008,0.135c0.008,0.104,0.017,0.209,0.031,0.313c0.005,0.027,0.005,0.052,0.008,0.078
		C-1518.809-2470.705-1520.247-2474.43-1520.247-2478.381 M-1495.792-2493.998l-0.033-0.014v-0.003
		c-2.541-1.356-5.417-2.073-8.315-2.073c-9.764,0-17.709,7.943-17.709,17.706c0,6.539,3.581,12.513,9.344,15.611l0.014,0.01
		l0.033,0.018c0.003,0.001,0.005,0.003,0.005,0.003l0,0l0.006,0.003l0.014,0.007l0,0c2.533,1.346,5.401,2.057,8.293,2.057
		c9.762,0,17.703-7.943,17.703-17.708C-1486.437-2484.923-1490.023-2490.906-1495.792-2493.998"/>
	<path fill="#91A71C" d="M-1477.517-2484.307v-5.389c0-0.144,0.064-0.236,0.22-0.236h1.137c0.142,0,0.209,0.078,0.209,0.236v5.232
		c0,1.449,0.468,2.14,1.761,2.14c1.226,0,1.683-0.64,1.683-2.087v-5.285c0-0.157,0.053-0.236,0.223-0.236h1.017
		c0.142,0,0.209,0.078,0.209,0.236v5.375c0,2.193-0.978,3.237-3.196,3.237C-1476.5-2481.084-1477.517-2482.076-1477.517-2484.307"/>
	<path fill="#91A71C" d="M-1469.321-2481.463v-8.233c0-0.156,0.064-0.236,0.209-0.236h1.148c0.142,0,0.22,0.08,0.22,0.236v3.276
		c0,0.13,0.067,0.169,0.156,0.169c0.092,0,0.159-0.039,0.223-0.13l2.388-3.327c0.145-0.209,0.223-0.223,0.379-0.223h1.162
		c0.089,0,0.128,0.039,0.128,0.118c0,0.064-0.025,0.13-0.156,0.3l-2.597,3.485c-0.05,0.064-0.064,0.104-0.064,0.156
		s0.014,0.092,0.053,0.17l2.597,4.045c0.103,0.156,0.128,0.209,0.128,0.287c0,0.092-0.05,0.144-0.17,0.144h-1.276
		c-0.131,0-0.209-0.026-0.276-0.144l-2.31-3.745c-0.05-0.078-0.103-0.104-0.195-0.104c-0.117,0-0.17,0.053-0.17,0.17v3.602
		c0,0.156-0.064,0.221-0.22,0.221h-1.137C-1469.243-2481.228-1469.321-2481.293-1469.321-2481.463"/>
	<path fill="#91A71C" d="M-1459.953-2485.443c0-2.975,1.499-4.658,4.202-4.658c0.613,0,1.226,0.117,1.658,0.3
		c0.234,0.078,0.298,0.156,0.298,0.379v0.769c0,0.17-0.05,0.236-0.181,0.236c-0.184,0-0.758-0.469-1.761-0.469
		c-1.594,0-2.586,1.161-2.586,3.379c0,2.05,0.939,3.21,2.611,3.21c1.123,0,1.552-0.509,1.761-0.509c0.117,0,0.156,0.078,0.156,0.183
		v0.771c0,0.248-0.078,0.339-0.418,0.482c-0.443,0.197-1.109,0.287-1.772,0.287
		C-1458.57-2481.084-1459.953-2482.702-1459.953-2485.443"/>
	<path fill="#91A71C" d="M-1448.901-2485.286c0.145,0,0.17-0.052,0.17-0.169c0-0.705-0.273-1.553-1.318-1.553
		c-0.978,0-1.421,0.848-1.421,1.553c0,0.117,0.025,0.169,0.17,0.169H-1448.901z M-1453.011-2484.582
		c0-2.296,1.201-3.444,2.976-3.444c1.853,0,2.753,1.122,2.753,3.418c0,0.223-0.053,0.301-0.248,0.301h-3.77
		c-0.17,0-0.209,0.065-0.209,0.26c0,1.423,0.953,1.814,1.942,1.814c1.07,0,1.527-0.391,1.764-0.391c0.128,0,0.17,0.092,0.17,0.221
		v0.588c0,0.156-0.053,0.26-0.248,0.351c-0.379,0.157-1.006,0.327-1.789,0.327
		C-1451.732-2481.136-1453.011-2482.089-1453.011-2484.582"/>
	<path fill="#91A71C" d="M-1446.069-2481.463v-6.171c0-0.17,0.053-0.221,0.198-0.221h1.081c0.131,0,0.17,0.064,0.17,0.156
		c0,0.065,0.039,0.117,0.131,0.117c0.234,0,0.758-0.443,1.775-0.443c1.538,0,2.048,0.861,2.048,2.518v4.045
		c0,0.157-0.092,0.235-0.234,0.235h-1.056c-0.145,0-0.223-0.078-0.223-0.235v-4.006c0-1.044-0.312-1.448-1.187-1.448
		c-0.602,0-1.201,0.195-1.201,0.744v4.709c0,0.145-0.064,0.235-0.223,0.235h-1.042
		C-1445.989-2481.228-1446.069-2481.306-1446.069-2481.463"/>
	<path fill="#91A71C" d="M-1438.696-2482.95v-3.692c0-0.104-0.039-0.157-0.128-0.157h-0.733c-0.156,0-0.234-0.065-0.234-0.234
		v-0.601c0-0.157,0.078-0.223,0.234-0.223h0.733c0.089,0,0.128-0.039,0.128-0.156v-1.37c0-0.157,0.067-0.236,0.223-0.236h1.056
		c0.17,0,0.237,0.078,0.237,0.236v1.37c0,0.117,0.064,0.156,0.156,0.156h1.46c0.17,0,0.248,0.079,0.248,0.223v0.601
		c0,0.156-0.078,0.234-0.248,0.234h-1.474c-0.078,0-0.142,0.039-0.142,0.157v3.471c0,0.599,0.287,0.861,0.833,0.861
		c0.524,0,0.719-0.248,0.875-0.248c0.078,0,0.156,0.052,0.156,0.17v0.73c0,0.326-0.691,0.522-1.41,0.522
		C-1438.083-2481.136-1438.696-2481.749-1438.696-2482.95"/>
	<path fill="#91A71C" d="M-1434.31-2481.449v-6.185c0-0.144,0.053-0.223,0.195-0.223h1.07c0.156,0,0.195,0.053,0.195,0.197
		c0,0.117,0.014,0.182,0.131,0.182c0.223,0,0.705-0.509,1.421-0.509c0.446,0,0.524,0.117,0.524,0.326v0.796
		c0,0.117-0.053,0.196-0.184,0.196c-0.156,0-0.326-0.039-0.666-0.039c-0.663,0-1.187,0.312-1.187,1.056v4.202
		c0,0.144-0.05,0.221-0.181,0.221h-1.123C-1434.232-2481.228-1434.31-2481.306-1434.31-2481.449"/>
	<path fill="#91A71C" d="M-1426.167-2485.286c0.142,0,0.17-0.052,0.17-0.169c0-0.705-0.276-1.553-1.318-1.553
		c-0.978,0-1.424,0.848-1.424,1.553c0,0.117,0.028,0.169,0.17,0.169H-1426.167z M-1430.277-2484.582
		c0-2.296,1.201-3.444,2.973-3.444c1.853,0,2.753,1.122,2.753,3.418c0,0.223-0.05,0.301-0.245,0.301h-3.773
		c-0.17,0-0.209,0.065-0.209,0.26c0,1.423,0.953,1.814,1.945,1.814c1.07,0,1.527-0.391,1.761-0.391c0.131,0,0.17,0.092,0.17,0.221
		v0.588c0,0.156-0.053,0.26-0.248,0.351c-0.379,0.157-1.003,0.327-1.786,0.327
		C-1428.998-2481.136-1430.277-2482.089-1430.277-2484.582"/>
	<path fill="#91A71C" d="M-1420.165-2481.449v-5.168c0-0.117-0.039-0.17-0.142-0.17h-0.641c-0.142,0-0.223-0.052-0.223-0.208v-0.654
		c0-0.156,0.081-0.209,0.223-0.209h0.641c0.103,0,0.142-0.052,0.142-0.156v-0.691c0-1.188,0.638-1.827,1.8-1.827
		c0.627,0,1.07,0.169,1.07,0.431v0.535c0,0.169-0.078,0.208-0.156,0.208c-0.131,0-0.248-0.103-0.56-0.103
		c-0.446,0-0.641,0.222-0.641,0.808v0.64c0,0.104,0.053,0.156,0.156,0.156h0.889c0.17,0,0.209,0.065,0.209,0.209v0.654
		c0,0.144-0.053,0.208-0.209,0.208h-0.889c-0.103,0-0.156,0.053-0.156,0.17v5.168c0,0.144-0.064,0.221-0.209,0.221h-1.095
		C-1420.087-2481.228-1420.165-2481.306-1420.165-2481.449"/>
	<path fill="#91A71C" d="M-1412.348-2484.594c0-1.619-0.457-2.362-1.474-2.362c-1.07,0-1.513,0.795-1.513,2.362
		c0,1.644,0.482,2.387,1.499,2.387C-1412.844-2482.207-1412.348-2482.95-1412.348-2484.594 M-1416.863-2484.594
		c0-2.05,0.953-3.432,3.04-3.432c2.048,0,3.015,1.252,3.015,3.432c0,2.114-0.942,3.457-3.015,3.457
		C-1415.91-2481.137-1416.863-2482.454-1416.863-2484.594"/>
	<path fill="#91A71C" d="M-1409.464-2481.449v-6.185c0-0.144,0.053-0.223,0.195-0.223h1.07c0.156,0,0.195,0.053,0.195,0.197
		c0,0.117,0.014,0.182,0.131,0.182c0.223,0,0.705-0.509,1.424-0.509c0.443,0,0.521,0.117,0.521,0.326v0.796
		c0,0.117-0.053,0.196-0.184,0.196c-0.156,0-0.326-0.039-0.663-0.039c-0.666,0-1.187,0.312-1.187,1.056v4.202
		c0,0.144-0.053,0.221-0.184,0.221h-1.123C-1409.386-2481.228-1409.464-2481.306-1409.464-2481.449"/>
	<path fill="#91A71C" d="M-1477.575-2468.15v-8.247c0-0.17,0.067-0.234,0.223-0.234h4.241c0.17,0,0.234,0.064,0.234,0.221v0.769
		c0,0.143-0.064,0.209-0.234,0.209h-2.742c-0.089,0-0.142,0.053-0.142,0.17v2.062c0,0.104,0.053,0.156,0.142,0.156h2.154
		c0.156,0,0.223,0.066,0.223,0.209v0.783c0,0.144-0.067,0.209-0.223,0.209h-2.154c-0.089,0-0.142,0.052-0.142,0.156v2.388
		c0,0.117,0.053,0.17,0.156,0.17h2.987c0.17,0,0.209,0.065,0.209,0.222v0.771c0,0.143-0.039,0.208-0.209,0.208h-4.5
		C-1477.522-2467.928-1477.575-2467.993-1477.575-2468.15"/>
	<path fill="#91A71C" d="M-1471.86-2471.178c0-2.14,1.045-3.549,3.199-3.549c0.613,0,1.042,0.091,1.407,0.261
		c0.223,0.092,0.276,0.17,0.276,0.338v0.693c0,0.131-0.053,0.196-0.17,0.196c-0.195,0-0.51-0.418-1.357-0.418
		c-1.148,0-1.8,0.861-1.8,2.413c0,1.541,0.677,2.298,1.761,2.298c0.808,0,1.187-0.379,1.368-0.379c0.145,0,0.198,0.092,0.198,0.262
		v0.599c0,0.196-0.117,0.274-0.34,0.379c-0.365,0.168-0.928,0.248-1.502,0.248C-1470.801-2467.836-1471.86-2469.05-1471.86-2471.178
		"/>
	<path fill="#91A71C" d="M-1461.549-2471.295c0-1.618-0.457-2.362-1.474-2.362c-1.07,0-1.516,0.796-1.516,2.362
		c0,1.644,0.485,2.388,1.502,2.388C-1462.045-2468.906-1461.549-2469.651-1461.549-2471.295 M-1466.064-2471.295
		c0-2.048,0.95-3.432,3.04-3.432c2.048,0,3.012,1.253,3.012,3.432c0,2.114-0.939,3.458-3.012,3.458
		C-1465.113-2467.836-1466.064-2469.155-1466.064-2471.295"/>
	<path fill="#91A71C" d="M-1458.665-2468.15v-8.678c0-0.156,0.092-0.235,0.234-0.235h1.045c0.142,0,0.22,0.092,0.22,0.248v8.665
		c0,0.143-0.064,0.221-0.209,0.221h-1.07C-1458.587-2467.928-1458.665-2468.007-1458.665-2468.15"/>
	<path fill="#91A71C" d="M-1451.306-2471.295c0-1.618-0.457-2.362-1.474-2.362c-1.07,0-1.513,0.796-1.513,2.362
		c0,1.644,0.482,2.388,1.499,2.388C-1451.802-2468.906-1451.306-2469.651-1451.306-2471.295 M-1455.82-2471.295
		c0-2.048,0.95-3.432,3.04-3.432c2.048,0,3.012,1.253,3.012,3.432c0,2.114-0.939,3.458-3.012,3.458
		C-1454.87-2467.836-1455.82-2469.155-1455.82-2471.295"/>
	<path fill="#91A71C" d="M-1444.506-2469.821v-3.131c0-0.483-0.471-0.705-1.098-0.705c-0.992,0-1.683,0.679-1.683,2.401
		c0,1.422,0.482,2.257,1.605,2.257C-1444.977-2468.999-1444.506-2469.298-1444.506-2469.821 M-1448.081-2465.331
		c-0.34-0.144-0.418-0.236-0.418-0.496v-0.574c0-0.183,0.064-0.274,0.209-0.274c0.234,0,0.755,0.496,2.073,0.496
		c0.457,0,0.928-0.065,1.254-0.313c0.337-0.26,0.457-0.704,0.457-1.214v-0.456c0-0.104-0.014-0.17-0.106-0.17
		c-0.17,0-0.482,0.404-1.488,0.404c-1.722,0-2.725-1.253-2.725-3.327c0-2.271,1.173-3.471,2.792-3.471
		c0.939,0,1.304,0.431,1.474,0.431c0.064,0,0.092-0.027,0.092-0.117c0.011-0.092,0.039-0.143,0.181-0.143h1.059
		c0.142,0,0.181,0.078,0.181,0.208v6.238c0,0.966-0.078,1.657-0.521,2.206c-0.563,0.678-1.527,0.887-2.597,0.887
		C-1447-2465.018-1447.677-2465.175-1448.081-2465.331"/>
	<path fill="#91A71C" d="M-1441.335-2465.331v-0.666c0-0.183,0.078-0.248,0.206-0.248c0.053,0,0.159,0.014,0.329,0.014
		c0.259,0,0.468-0.078,0.638-0.444c0.234-0.548,0.287-0.743,0.287-0.874c0-0.092-0.025-0.209-0.078-0.365l-2.037-6.25
		c-0.039-0.131-0.064-0.196-0.064-0.262c0-0.078,0.053-0.129,0.17-0.129h1.109c0.131,0,0.209,0.039,0.248,0.182l1.371,4.802
		c0.025,0.092,0.05,0.118,0.117,0.118c0.05,0,0.078-0.041,0.103-0.131l1.304-4.803c0.042-0.144,0.131-0.168,0.262-0.168h0.928
		c0.103,0,0.156,0.052,0.156,0.129c0,0.066-0.014,0.118-0.053,0.275l-2.296,7.333c-0.404,1.305-1.006,1.802-2.037,1.802
		C-1441.207-2465.018-1441.335-2465.11-1441.335-2465.331"/>
	<path fill="#91A71C" d="M-1429.851-2473.461c0.546-0.3,0.9-0.718,0.9-1.396c0-0.601-0.34-0.991-0.914-0.991
		c-0.613,0-0.967,0.378-0.967,0.952c0,0.469,0.184,0.783,0.705,1.41c0.039,0.052,0.078,0.065,0.131,0.065
		C-1429.943-2473.421-1429.904-2473.435-1429.851-2473.461 M-1428.561-2469.22c0.106-0.052,0.131-0.092,0.131-0.144
		c0-0.039-0.014-0.078-0.067-0.131l-1.878-2.282c-0.039-0.04-0.064-0.065-0.131-0.065c-0.039,0-0.089,0.012-0.142,0.065
		c-0.418,0.3-0.783,0.665-0.783,1.382c0,1.057,0.808,1.449,1.683,1.449C-1429.266-2468.946-1428.862-2469.038-1428.561-2469.22
		 M-1432.919-2470.251c0-1.056,0.535-1.722,1.502-2.388c0.078-0.052,0.103-0.078,0.103-0.129c0-0.053-0.025-0.092-0.064-0.144
		c-0.51-0.562-0.875-1.135-0.875-1.906c0-1.109,0.783-1.983,2.427-1.983c1.304,0,2.296,0.652,2.296,1.944
		c0,0.953-0.535,1.658-1.552,2.206c-0.078,0.039-0.106,0.092-0.106,0.144c0,0.039,0.014,0.065,0.053,0.117l1.566,1.919
		c0.053,0.052,0.092,0.065,0.131,0.065c0.064,0,0.092-0.039,0.131-0.117c0.156-0.366,0.234-0.705,0.234-1.279
		c0-0.118,0.053-0.209,0.209-0.209h0.847c0.184,0,0.237,0.052,0.237,0.274c0,0.808-0.145,1.657-0.627,2.27
		c-0.039,0.065-0.053,0.092-0.053,0.131c0,0.052,0.014,0.078,0.064,0.144l0.744,0.849c0.145,0.168,0.184,0.221,0.184,0.3
		c0,0.078-0.053,0.117-0.156,0.117h-1.293c-0.156,0-0.209-0.039-0.312-0.156l-0.184-0.209c-0.039-0.052-0.064-0.065-0.117-0.065
		c-0.039,0-0.078,0.014-0.156,0.053c-0.56,0.353-1.265,0.535-2.179,0.535C-1431.47-2467.771-1432.919-2468.502-1432.919-2470.251"/>
	<path fill="#91A71C" d="M-1421.552-2468.15v-8.247c0-0.156,0.064-0.234,0.234-0.234h1.123c0.142,0,0.22,0.078,0.22,0.234v3.158
		c0,0.13,0.053,0.169,0.17,0.169h3.054c0.106,0,0.156-0.039,0.156-0.156v-3.171c0-0.156,0.092-0.234,0.237-0.234h1.134
		c0.156,0,0.223,0.078,0.223,0.234v8.247c0,0.157-0.067,0.221-0.223,0.221h-1.148c-0.145,0-0.223-0.064-0.223-0.221v-3.536
		c0-0.131-0.064-0.156-0.156-0.156h-3.065c-0.106,0-0.159,0.025-0.159,0.156v3.536c0,0.157-0.064,0.221-0.22,0.221h-1.137
		C-1421.488-2467.928-1421.552-2467.993-1421.552-2468.15"/>
	<path fill="#91A71C" d="M-1413.24-2465.331v-0.666c0-0.183,0.078-0.248,0.209-0.248c0.05,0,0.156,0.014,0.326,0.014
		c0.259,0,0.468-0.078,0.638-0.444c0.237-0.548,0.287-0.743,0.287-0.874c0-0.092-0.025-0.209-0.078-0.365l-2.034-6.25
		c-0.039-0.131-0.067-0.196-0.067-0.262c0-0.078,0.053-0.129,0.17-0.129h1.109c0.131,0,0.209,0.039,0.248,0.182l1.371,4.802
		c0.025,0.092,0.053,0.118,0.117,0.118c0.053,0,0.078-0.041,0.103-0.131l1.307-4.803c0.039-0.144,0.131-0.168,0.259-0.168h0.928
		c0.103,0,0.156,0.052,0.156,0.129c0,0.066-0.014,0.118-0.053,0.275l-2.296,7.333c-0.404,1.305-1.003,1.802-2.034,1.802
		C-1413.109-2465.018-1413.24-2465.11-1413.24-2465.331"/>
	<path fill="#91A71C" d="M-1403.453-2469.638v-3.301c0-0.482-0.457-0.718-1.045-0.718c-1.12,0-1.708,0.888-1.708,2.454
		c0,1.396,0.482,2.282,1.669,2.282C-1403.974-2468.92-1403.453-2469.115-1403.453-2469.638 M-1407.747-2471.19
		c0-2.337,1.148-3.536,2.884-3.536c0.85,0,1.162,0.3,1.318,0.3c0.078,0,0.092-0.064,0.092-0.156v-2.245
		c0-0.156,0.078-0.235,0.234-0.235h1.059c0.17,0,0.22,0.079,0.22,0.235v8.678c0,0.143-0.039,0.221-0.234,0.221h-1.017
		c-0.12,0-0.184-0.052-0.184-0.17c0-0.064-0.014-0.13-0.103-0.13c-0.198,0-0.563,0.392-1.527,0.392
		C-1406.755-2467.836-1407.747-2469.103-1407.747-2471.19"/>
	<path fill="#91A71C" d="M-1400.229-2468.15v-6.185c0-0.144,0.05-0.221,0.195-0.221h1.07c0.156,0,0.195,0.052,0.195,0.195
		c0,0.117,0.014,0.182,0.131,0.182c0.223,0,0.705-0.509,1.421-0.509c0.446,0,0.524,0.117,0.524,0.326v0.797
		c0,0.117-0.053,0.195-0.184,0.195c-0.156,0-0.326-0.039-0.666-0.039c-0.666,0-1.187,0.313-1.187,1.056v4.202
		c0,0.143-0.053,0.221-0.181,0.221h-1.123C-1400.151-2467.928-1400.229-2468.007-1400.229-2468.15"/>
	<path fill="#91A71C" d="M-1391.682-2471.295c0-1.618-0.457-2.362-1.474-2.362c-1.07,0-1.513,0.796-1.513,2.362
		c0,1.644,0.482,2.388,1.499,2.388C-1392.178-2468.906-1391.682-2469.651-1391.682-2471.295 M-1396.197-2471.295
		c0-2.048,0.953-3.432,3.04-3.432c2.048,0,3.015,1.253,3.015,3.432c0,2.114-0.942,3.458-3.015,3.458
		C-1395.244-2467.836-1396.197-2469.155-1396.197-2471.295"/>
	<path fill="#91A71C" d="M-1388.798-2468.15v-8.678c0-0.156,0.092-0.235,0.234-0.235h1.045c0.142,0,0.22,0.092,0.22,0.248v8.665
		c0,0.143-0.064,0.221-0.209,0.221h-1.067C-1388.72-2467.928-1388.798-2468.007-1388.798-2468.15"/>
	<path fill="#91A71C" d="M-1381.439-2471.295c0-1.618-0.457-2.362-1.474-2.362c-1.07,0-1.513,0.796-1.513,2.362
		c0,1.644,0.482,2.388,1.499,2.388C-1381.935-2468.906-1381.439-2469.651-1381.439-2471.295 M-1385.953-2471.295
		c0-2.048,0.953-3.432,3.04-3.432c2.048,0,3.012,1.253,3.012,3.432c0,2.114-0.939,3.458-3.012,3.458
		C-1385-2467.836-1385.953-2469.155-1385.953-2471.295"/>
	<path fill="#91A71C" d="M-1374.639-2469.821v-3.131c0-0.483-0.471-0.705-1.098-0.705c-0.992,0-1.683,0.679-1.683,2.401
		c0,1.422,0.485,2.257,1.605,2.257C-1375.11-2468.999-1374.639-2469.298-1374.639-2469.821 M-1378.215-2465.331
		c-0.34-0.144-0.418-0.236-0.418-0.496v-0.574c0-0.183,0.064-0.274,0.209-0.274c0.234,0,0.755,0.496,2.073,0.496
		c0.457,0,0.928-0.065,1.254-0.313c0.34-0.26,0.457-0.704,0.457-1.214v-0.456c0-0.104-0.014-0.17-0.106-0.17
		c-0.17,0-0.482,0.404-1.488,0.404c-1.722,0-2.725-1.253-2.725-3.327c0-2.271,1.173-3.471,2.792-3.471
		c0.939,0,1.304,0.431,1.474,0.431c0.064,0,0.092-0.027,0.092-0.117c0.011-0.092,0.039-0.143,0.181-0.143h1.059
		c0.142,0,0.181,0.078,0.181,0.208v6.238c0,0.966-0.078,1.657-0.521,2.206c-0.563,0.678-1.527,0.887-2.597,0.887
		C-1377.133-2465.018-1377.811-2465.175-1378.215-2465.331"/>
	<path fill="#91A71C" d="M-1371.468-2465.331v-0.666c0-0.183,0.078-0.248,0.209-0.248c0.05,0,0.156,0.014,0.326,0.014
		c0.259,0,0.468-0.078,0.638-0.444c0.234-0.548,0.287-0.743,0.287-0.874c0-0.092-0.025-0.209-0.078-0.365l-2.034-6.25
		c-0.042-0.131-0.067-0.196-0.067-0.262c0-0.078,0.053-0.129,0.17-0.129h1.109c0.131,0,0.209,0.039,0.248,0.182l1.371,4.802
		c0.025,0.092,0.05,0.118,0.117,0.118c0.053,0,0.078-0.041,0.103-0.131l1.307-4.803c0.039-0.144,0.128-0.168,0.259-0.168h0.928
		c0.103,0,0.156,0.052,0.156,0.129c0,0.066-0.014,0.118-0.053,0.275l-2.296,7.333c-0.404,1.305-1.006,1.802-2.034,1.802
		C-1371.337-2465.018-1371.468-2465.11-1371.468-2465.331"/>
</g>
<g>
	<path fill="#91A71C" d="M252.156,639.526h1.028c0.219,0,0.39-0.022,0.513-0.067c0.124-0.046,0.217-0.118,0.281-0.218
		c0.064-0.099,0.097-0.207,0.097-0.324c0-0.171-0.063-0.312-0.187-0.421c-0.124-0.11-0.32-0.166-0.588-0.166h-1.145V639.526z
		 M251.678,641.546v-3.615h1.603c0.322,0,0.567,0.033,0.735,0.098c0.167,0.065,0.302,0.18,0.402,0.344
		c0.1,0.165,0.151,0.347,0.151,0.545c0,0.257-0.084,0.473-0.25,0.648c-0.166,0.177-0.422,0.288-0.769,0.336
		c0.126,0.061,0.223,0.12,0.288,0.18c0.14,0.128,0.272,0.288,0.397,0.48l0.629,0.984h-0.602l-0.479-0.752
		c-0.14-0.217-0.255-0.383-0.345-0.498s-0.171-0.196-0.243-0.242c-0.072-0.046-0.145-0.078-0.218-0.096
		c-0.054-0.012-0.143-0.018-0.266-0.018h-0.555v1.605H251.678z"/>
	<path fill="#91A71C" d="M255.495,639.985h1.462c-0.02-0.221-0.076-0.386-0.168-0.496c-0.142-0.171-0.325-0.256-0.55-0.256
		c-0.204,0-0.375,0.067-0.514,0.204C255.587,639.574,255.51,639.757,255.495,639.985z M256.953,640.702l0.458,0.057
		c-0.073,0.269-0.207,0.477-0.402,0.624c-0.195,0.148-0.445,0.222-0.75,0.222c-0.383,0-0.687-0.117-0.911-0.354
		c-0.225-0.235-0.337-0.566-0.337-0.992c0-0.44,0.114-0.782,0.34-1.025c0.228-0.244,0.521-0.365,0.883-0.365
		c0.35,0,0.636,0.119,0.858,0.357c0.222,0.238,0.333,0.573,0.333,1.006c0,0.026-0.001,0.065-0.003,0.118h-1.953
		c0.017,0.288,0.098,0.508,0.245,0.661c0.146,0.153,0.328,0.229,0.547,0.229c0.163,0,0.301-0.043,0.417-0.129
		C256.794,641.026,256.885,640.889,256.953,640.702z"/>
	<path fill="#91A71C" d="M259.576,640.587l0.437,0.057c-0.048,0.301-0.17,0.536-0.366,0.706s-0.438,0.255-0.724,0.255
		c-0.359,0-0.647-0.116-0.865-0.351s-0.327-0.57-0.327-1.008c0-0.282,0.047-0.53,0.141-0.742c0.094-0.212,0.236-0.371,0.428-0.477
		c0.191-0.106,0.399-0.159,0.625-0.159c0.284,0,0.517,0.072,0.698,0.216s0.296,0.348,0.348,0.612l-0.432,0.066
		c-0.041-0.176-0.113-0.308-0.218-0.396c-0.104-0.089-0.23-0.133-0.378-0.133c-0.224,0-0.406,0.08-0.545,0.24
		s-0.21,0.413-0.21,0.761c0,0.352,0.068,0.607,0.203,0.767c0.134,0.159,0.31,0.239,0.527,0.239c0.174,0,0.32-0.054,0.437-0.16
		C259.471,640.972,259.545,640.808,259.576,640.587z"/>
	<path fill="#91A71C" d="M260.583,640.236c0,0.336,0.073,0.587,0.219,0.754c0.146,0.166,0.331,0.25,0.552,0.25
		c0.22,0,0.403-0.084,0.55-0.252c0.146-0.167,0.219-0.423,0.219-0.767c0-0.324-0.073-0.569-0.221-0.736
		c-0.146-0.166-0.33-0.25-0.548-0.25c-0.222,0-0.406,0.083-0.552,0.249S260.583,639.901,260.583,640.236z M260.126,640.236
		c0-0.484,0.135-0.844,0.404-1.077c0.226-0.194,0.5-0.291,0.824-0.291c0.36,0,0.654,0.118,0.883,0.354
		c0.228,0.236,0.343,0.562,0.343,0.978c0,0.337-0.051,0.603-0.152,0.796c-0.101,0.192-0.249,0.343-0.441,0.449
		c-0.193,0.107-0.404,0.16-0.633,0.16c-0.367,0-0.663-0.117-0.889-0.353C260.239,641.017,260.126,640.679,260.126,640.236z"/>
	<path fill="#91A71C" d="M262.994,641.546v-2.619h0.399v0.397c0.103-0.186,0.196-0.309,0.282-0.367
		c0.087-0.06,0.182-0.089,0.285-0.089c0.15,0,0.302,0.048,0.456,0.143l-0.152,0.412c-0.109-0.064-0.217-0.097-0.326-0.097
		c-0.097,0-0.184,0.029-0.261,0.088c-0.077,0.059-0.132,0.14-0.166,0.243c-0.049,0.157-0.073,0.33-0.073,0.518v1.371H262.994z"/>
	<path fill="#91A71C" d="M264.876,640.239c0,0.335,0.07,0.586,0.211,0.752c0.142,0.166,0.309,0.249,0.501,0.249
		c0.194,0,0.359-0.079,0.494-0.238c0.136-0.158,0.204-0.4,0.204-0.726c0-0.358-0.069-0.622-0.207-0.789
		c-0.138-0.168-0.308-0.252-0.51-0.252c-0.197,0-0.362,0.081-0.495,0.242C264.942,639.638,264.876,639.892,264.876,640.239z
		 M266.278,641.546v-0.33c-0.167,0.26-0.41,0.389-0.732,0.389c-0.209,0-0.401-0.057-0.576-0.172s-0.311-0.276-0.407-0.482
		c-0.095-0.206-0.144-0.443-0.144-0.711c0-0.262,0.043-0.499,0.13-0.712c0.087-0.213,0.218-0.376,0.392-0.489s0.369-0.17,0.584-0.17
		c0.158,0,0.298,0.033,0.421,0.1s0.223,0.153,0.301,0.26v-1.297h0.442v3.615H266.278z"/>
	<path fill="#91A71C" d="M267.109,640.763l0.438-0.068c0.025,0.176,0.094,0.311,0.206,0.404c0.113,0.094,0.271,0.141,0.473,0.141
		c0.204,0,0.355-0.042,0.454-0.125s0.147-0.18,0.147-0.292c0-0.101-0.043-0.179-0.13-0.236c-0.061-0.04-0.212-0.09-0.454-0.15
		c-0.326-0.083-0.552-0.153-0.677-0.214c-0.126-0.06-0.221-0.143-0.287-0.249c-0.064-0.105-0.097-0.223-0.097-0.352
		c0-0.116,0.027-0.225,0.08-0.324c0.054-0.099,0.126-0.182,0.218-0.247c0.07-0.051,0.164-0.095,0.283-0.13s0.247-0.053,0.383-0.053
		c0.205,0,0.386,0.029,0.542,0.089c0.155,0.059,0.27,0.139,0.344,0.24c0.073,0.101,0.125,0.236,0.152,0.405l-0.434,0.06
		c-0.02-0.135-0.077-0.24-0.171-0.315c-0.095-0.076-0.228-0.113-0.401-0.113c-0.204,0-0.349,0.033-0.437,0.101
		c-0.086,0.067-0.13,0.146-0.13,0.236c0,0.058,0.018,0.109,0.054,0.156c0.036,0.047,0.093,0.087,0.17,0.118
		c0.044,0.017,0.175,0.054,0.392,0.113c0.314,0.084,0.533,0.152,0.657,0.206c0.124,0.053,0.221,0.131,0.292,0.232
		c0.071,0.103,0.105,0.229,0.105,0.38c0,0.148-0.042,0.287-0.129,0.418c-0.086,0.131-0.21,0.231-0.373,0.304
		c-0.163,0.071-0.347,0.106-0.552,0.106c-0.34,0-0.6-0.07-0.778-0.212C267.273,641.252,267.159,641.042,267.109,640.763z"/>
	<path fill="#91A71C" d="M252.127,635.259h0.9c0.154,0,0.263-0.005,0.326-0.017c0.11-0.02,0.202-0.053,0.276-0.099
		s0.135-0.113,0.183-0.201c0.047-0.088,0.071-0.189,0.071-0.305c0-0.135-0.035-0.252-0.104-0.352
		c-0.069-0.099-0.165-0.169-0.287-0.209c-0.123-0.041-0.299-0.061-0.529-0.061h-0.836V635.259z M252.127,633.59h0.781
		c0.212,0,0.364-0.014,0.457-0.042c0.122-0.036,0.213-0.096,0.275-0.18s0.092-0.189,0.092-0.315c0-0.12-0.029-0.226-0.086-0.317
		c-0.058-0.091-0.14-0.153-0.246-0.188c-0.107-0.033-0.291-0.05-0.55-0.05h-0.722V633.59z M251.648,635.685v-3.614h1.356
		c0.276,0,0.498,0.036,0.664,0.109c0.167,0.073,0.298,0.186,0.392,0.338c0.095,0.152,0.142,0.312,0.142,0.478
		c0,0.154-0.042,0.3-0.125,0.436c-0.084,0.137-0.211,0.247-0.38,0.331c0.219,0.063,0.387,0.173,0.505,0.328
		c0.117,0.154,0.176,0.337,0.176,0.547c0,0.17-0.035,0.327-0.107,0.473c-0.072,0.146-0.16,0.258-0.265,0.336
		c-0.105,0.079-0.237,0.139-0.396,0.179c-0.159,0.041-0.353,0.061-0.583,0.061H251.648z"/>
	<path fill="#91A71C" d="M254.962,635.685v-2.618h0.444v2.618H254.962z M254.962,632.581v-0.51h0.444v0.51H254.962z"/>
	<path fill="#91A71C" d="M256.352,634.377c0,0.335,0.074,0.586,0.22,0.753s0.331,0.25,0.552,0.25c0.22,0,0.403-0.084,0.55-0.251
		c0.146-0.168,0.219-0.424,0.219-0.768c0-0.323-0.073-0.568-0.221-0.735c-0.147-0.167-0.33-0.251-0.548-0.251
		c-0.222,0-0.406,0.083-0.552,0.249S256.352,634.041,256.352,634.377z M255.896,634.377c0-0.485,0.135-0.845,0.404-1.078
		c0.226-0.193,0.5-0.291,0.824-0.291c0.36,0,0.654,0.118,0.883,0.354c0.228,0.236,0.342,0.563,0.342,0.979
		c0,0.337-0.05,0.602-0.151,0.795s-0.249,0.343-0.441,0.45c-0.193,0.106-0.404,0.16-0.633,0.16c-0.367,0-0.663-0.117-0.889-0.353
		C256.009,635.157,255.896,634.818,255.896,634.377z"/>
	<rect x="258.839" y="632.071" fill="#91A71C" width="0.444" height="3.614"/>
	<path fill="#91A71C" d="M260.242,634.377c0,0.335,0.073,0.586,0.219,0.753s0.331,0.25,0.552,0.25c0.22,0,0.403-0.084,0.55-0.251
		c0.146-0.168,0.219-0.424,0.219-0.768c0-0.323-0.073-0.568-0.221-0.735c-0.147-0.167-0.33-0.251-0.549-0.251
		c-0.222,0-0.406,0.083-0.552,0.249S260.242,634.041,260.242,634.377z M259.786,634.377c0-0.485,0.135-0.845,0.404-1.078
		c0.226-0.193,0.5-0.291,0.824-0.291c0.36,0,0.654,0.118,0.883,0.354c0.228,0.236,0.342,0.563,0.342,0.979
		c0,0.337-0.05,0.602-0.151,0.795s-0.249,0.343-0.441,0.45c-0.193,0.106-0.404,0.16-0.633,0.16c-0.367,0-0.663-0.117-0.889-0.353
		C259.899,635.157,259.786,634.818,259.786,634.377z"/>
	<path fill="#91A71C" d="M263.025,634.33c0,0.343,0.068,0.594,0.205,0.752c0.136,0.157,0.307,0.236,0.513,0.236
		c0.204,0,0.375-0.078,0.513-0.235c0.138-0.157,0.207-0.403,0.207-0.738c0-0.321-0.071-0.563-0.213-0.726
		c-0.142-0.162-0.313-0.244-0.515-0.244c-0.197,0-0.365,0.08-0.502,0.241C263.095,633.776,263.025,634.013,263.025,634.33z
		 M262.658,635.902l0.432,0.064c0.018,0.133,0.068,0.23,0.15,0.291c0.11,0.082,0.261,0.123,0.451,0.123
		c0.206,0,0.365-0.041,0.476-0.123c0.112-0.082,0.188-0.197,0.227-0.345c0.023-0.091,0.034-0.28,0.032-0.57
		c-0.193,0.229-0.436,0.343-0.725,0.343c-0.36,0-0.639-0.13-0.836-0.39s-0.296-0.571-0.296-0.935c0-0.249,0.045-0.48,0.136-0.691
		s0.222-0.374,0.394-0.489c0.171-0.115,0.373-0.173,0.605-0.173c0.31,0,0.563,0.125,0.765,0.375v-0.315h0.409v2.264
		c0,0.407-0.041,0.696-0.124,0.866c-0.083,0.17-0.214,0.305-0.394,0.403c-0.181,0.099-0.402,0.148-0.666,0.148
		c-0.312,0-0.564-0.07-0.756-0.211C262.744,636.397,262.652,636.185,262.658,635.902z"/>
	<path fill="#91A71C" d="M265.53,635.685v-2.618h0.443v2.618H265.53z M265.53,632.581v-0.51h0.443v0.51H265.53z"/>
	<path fill="#91A71C" d="M268.338,634.726l0.437,0.057c-0.048,0.301-0.169,0.536-0.366,0.707c-0.196,0.17-0.438,0.255-0.724,0.255
		c-0.359,0-0.647-0.117-0.865-0.352s-0.327-0.57-0.327-1.007c0-0.283,0.047-0.53,0.141-0.742c0.094-0.213,0.237-0.371,0.428-0.478
		c0.192-0.106,0.4-0.159,0.625-0.159c0.284,0,0.517,0.072,0.698,0.216s0.296,0.349,0.348,0.613l-0.431,0.066
		c-0.042-0.176-0.114-0.309-0.219-0.397c-0.104-0.089-0.23-0.133-0.378-0.133c-0.224,0-0.406,0.08-0.545,0.24
		s-0.21,0.414-0.21,0.761c0,0.352,0.068,0.607,0.203,0.767c0.134,0.16,0.31,0.239,0.527,0.239c0.174,0,0.32-0.053,0.437-0.16
		C268.233,635.113,268.307,634.948,268.338,634.726z"/>
	<path fill="#91A71C" d="M270.806,634.371c-0.161,0.066-0.403,0.122-0.725,0.168c-0.183,0.026-0.311,0.056-0.387,0.089
		s-0.134,0.081-0.175,0.145s-0.062,0.134-0.062,0.211c0,0.118,0.045,0.217,0.134,0.296c0.09,0.078,0.221,0.118,0.394,0.118
		c0.17,0,0.323-0.037,0.456-0.112c0.132-0.075,0.23-0.177,0.293-0.307c0.047-0.101,0.071-0.249,0.071-0.444V634.371z
		 M270.843,635.363c-0.164,0.14-0.322,0.238-0.474,0.296c-0.152,0.057-0.315,0.086-0.49,0.086c-0.287,0-0.509-0.07-0.663-0.211
		s-0.232-0.32-0.232-0.539c0-0.128,0.029-0.245,0.088-0.352c0.058-0.105,0.135-0.19,0.229-0.255c0.095-0.064,0.201-0.112,0.32-0.146
		c0.087-0.022,0.218-0.045,0.395-0.066c0.358-0.043,0.623-0.094,0.792-0.153c0.001-0.061,0.002-0.099,0.002-0.115
		c0-0.181-0.042-0.309-0.125-0.383c-0.113-0.1-0.281-0.15-0.505-0.15c-0.208,0-0.363,0.037-0.462,0.11
		c-0.1,0.073-0.173,0.202-0.22,0.388l-0.434-0.059c0.04-0.186,0.104-0.336,0.195-0.45c0.09-0.114,0.221-0.202,0.392-0.264
		c0.171-0.062,0.369-0.093,0.595-0.093c0.223,0,0.405,0.026,0.544,0.079s0.243,0.119,0.309,0.198
		c0.065,0.08,0.112,0.181,0.138,0.303c0.015,0.075,0.022,0.212,0.022,0.409v0.592c0,0.412,0.009,0.673,0.028,0.782
		s0.056,0.215,0.112,0.314h-0.463C270.886,635.594,270.857,635.486,270.843,635.363z"/>
	<rect x="271.913" y="632.071" fill="#91A71C" width="0.443" height="3.614"/>
	<path fill="#91A71C" d="M254.247,646.372l0.479,0.121c-0.1,0.393-0.281,0.692-0.542,0.898c-0.261,0.207-0.579,0.31-0.956,0.31
		c-0.39,0-0.707-0.079-0.951-0.238c-0.244-0.158-0.43-0.388-0.557-0.688s-0.191-0.624-0.191-0.97c0-0.376,0.072-0.704,0.216-0.984
		c0.144-0.28,0.348-0.493,0.614-0.639s0.558-0.219,0.876-0.219c0.362,0,0.666,0.093,0.912,0.276
		c0.247,0.185,0.419,0.443,0.515,0.776l-0.47,0.111c-0.084-0.263-0.206-0.454-0.365-0.574c-0.159-0.12-0.36-0.181-0.602-0.181
		c-0.278,0-0.51,0.067-0.697,0.2s-0.317,0.312-0.393,0.536s-0.113,0.456-0.113,0.694c0,0.308,0.044,0.576,0.134,0.805
		c0.089,0.229,0.229,0.401,0.418,0.515s0.394,0.17,0.614,0.17c0.268,0,0.495-0.077,0.681-0.231
		C254.056,646.905,254.182,646.677,254.247,646.372z"/>
	<path fill="#91A71C" d="M255.548,646.079h1.462c-0.02-0.221-0.076-0.386-0.167-0.496c-0.142-0.171-0.325-0.256-0.55-0.256
		c-0.204,0-0.376,0.068-0.514,0.204C255.64,645.668,255.563,645.85,255.548,646.079z M257.005,646.796l0.458,0.058
		c-0.072,0.268-0.206,0.476-0.401,0.623c-0.196,0.148-0.446,0.223-0.75,0.223c-0.384,0-0.688-0.118-0.912-0.354
		c-0.224-0.235-0.337-0.566-0.337-0.992c0-0.44,0.114-0.782,0.341-1.025c0.227-0.244,0.521-0.365,0.882-0.365
		c0.35,0,0.637,0.119,0.858,0.357s0.333,0.574,0.333,1.006c0,0.026-0.001,0.066-0.002,0.118h-1.953
		c0.017,0.288,0.098,0.509,0.244,0.661c0.146,0.153,0.329,0.229,0.547,0.229c0.163,0,0.302-0.043,0.417-0.128
		C256.847,647.12,256.938,646.983,257.005,646.796z"/>
	<path fill="#91A71C" d="M257.976,647.639v-2.619h0.399v0.373c0.192-0.288,0.47-0.432,0.833-0.432c0.158,0,0.303,0.028,0.436,0.085
		c0.132,0.057,0.231,0.131,0.297,0.224c0.066,0.092,0.112,0.201,0.138,0.327c0.017,0.083,0.025,0.227,0.025,0.432v1.61h-0.444
		v-1.593c0-0.181-0.018-0.316-0.052-0.405c-0.035-0.09-0.096-0.161-0.184-0.215c-0.088-0.054-0.191-0.08-0.31-0.08
		c-0.189,0-0.353,0.06-0.49,0.18s-0.206,0.348-0.206,0.684v1.43H257.976z"/>
	<path fill="#91A71C" d="M261.709,647.242l0.063,0.393c-0.125,0.026-0.236,0.039-0.335,0.039c-0.161,0-0.287-0.025-0.375-0.076
		c-0.089-0.051-0.151-0.118-0.188-0.201c-0.035-0.083-0.053-0.258-0.053-0.523v-1.507h-0.326v-0.346h0.326v-0.648l0.441-0.266v0.914
		h0.447v0.346h-0.447v1.531c0,0.127,0.008,0.208,0.023,0.244c0.016,0.036,0.041,0.064,0.077,0.086
		c0.035,0.021,0.085,0.032,0.151,0.032C261.563,647.26,261.628,647.254,261.709,647.242z"/>
	<path fill="#91A71C" d="M262.092,647.639v-2.619h0.399v0.397c0.102-0.186,0.196-0.309,0.282-0.367
		c0.086-0.06,0.182-0.089,0.285-0.089c0.149,0,0.302,0.048,0.456,0.143l-0.153,0.412c-0.108-0.064-0.217-0.096-0.325-0.096
		c-0.097,0-0.185,0.028-0.262,0.087c-0.077,0.059-0.132,0.14-0.165,0.243c-0.049,0.157-0.074,0.33-0.074,0.518v1.371H262.092z"/>
	<path fill="#91A71C" d="M264.068,646.079h1.462c-0.02-0.221-0.076-0.386-0.168-0.496c-0.141-0.171-0.324-0.256-0.549-0.256
		c-0.204,0-0.375,0.068-0.514,0.204C264.16,645.668,264.084,645.85,264.068,646.079z M265.526,646.796l0.458,0.058
		c-0.072,0.268-0.207,0.476-0.401,0.623c-0.196,0.148-0.446,0.223-0.75,0.223c-0.384,0-0.688-0.118-0.912-0.354
		c-0.225-0.235-0.337-0.566-0.337-0.992c0-0.44,0.114-0.782,0.341-1.025c0.227-0.244,0.521-0.365,0.882-0.365
		c0.351,0,0.637,0.119,0.858,0.357s0.333,0.574,0.333,1.006c0,0.026-0.001,0.066-0.002,0.118h-1.953
		c0.016,0.288,0.097,0.509,0.244,0.661c0.146,0.153,0.328,0.229,0.548,0.229c0.162,0,0.301-0.043,0.417-0.128
		C265.367,647.12,265.458,646.983,265.526,646.796z"/>
	<path fill="#91A71C" stroke="#92A83C" stroke-width="3.5" stroke-miterlimit="1.4142" d="M247.06,629.749v20.156"/>
	<path fill="#91A71C" d="M213.103,639.738v2.92c0,0.865,0.018,1.639,0.054,2.322s0.079,1.122,0.129,1.315s0.23,0.344,0.539,0.451
		c0.309,0.108,0.715,0.163,1.218,0.163c1.042,0,1.851-0.317,2.426-0.95c0.575-0.634,0.863-1.521,0.863-2.665
		c0-1.127-0.333-2.002-0.998-2.624c-0.665-0.621-1.612-0.933-2.841-0.933H213.103z M213.103,638.29v0.568h0.593
		c1.323,0,2.334-0.278,3.035-0.834c0.701-0.557,1.051-1.352,1.051-2.387c0-0.788-0.268-1.381-0.803-1.778
		c-0.536-0.397-1.335-0.597-2.399-0.597c-0.194,0-0.397,0.006-0.609,0.018s-0.433,0.028-0.663,0.052
		c-0.072,0.332-0.125,0.865-0.157,1.599c-0.032,0.734-0.048,1.784-0.048,3.151V638.29z M212.154,647.639h-1.499
		c0.201-0.231,0.343-0.765,0.426-1.599c0.083-0.834,0.124-2.618,0.124-5.353v-0.973c0-2.981-0.042-4.884-0.124-5.706
		c-0.083-0.822-0.225-1.35-0.426-1.581h1.854c0.482,0,1.167-0.027,2.054-0.081c0.888-0.055,1.536-0.081,1.946-0.081
		c1.078,0,1.914,0.251,2.507,0.753s0.89,1.209,0.89,2.12c0,0.857-0.29,1.612-0.868,2.265s-1.432,1.188-2.561,1.604
		c1.315,0.162,2.333,0.601,3.051,1.314c0.719,0.715,1.078,1.644,1.078,2.787c0,1.39-0.487,2.516-1.461,3.377
		c-0.974,0.861-2.273,1.291-3.897,1.291c-0.396,0-0.937-0.022-1.623-0.069C212.939,647.663,212.449,647.639,212.154,647.639z"/>
	<path fill="#91A71C" stroke="#FFFFFF" stroke-width="0.25" stroke-miterlimit="1.4142" d="M213.103,639.738v2.92
		c0,0.865,0.018,1.639,0.054,2.322s0.079,1.122,0.129,1.315s0.23,0.344,0.539,0.451c0.309,0.108,0.715,0.163,1.218,0.163
		c1.042,0,1.851-0.317,2.426-0.95c0.575-0.634,0.863-1.521,0.863-2.665c0-1.127-0.333-2.002-0.998-2.624
		c-0.665-0.621-1.612-0.933-2.841-0.933H213.103z M213.103,638.29v0.568h0.593c1.323,0,2.334-0.278,3.035-0.834
		c0.701-0.557,1.051-1.352,1.051-2.387c0-0.788-0.268-1.381-0.803-1.778c-0.536-0.397-1.335-0.597-2.399-0.597
		c-0.194,0-0.397,0.006-0.609,0.018s-0.433,0.028-0.663,0.052c-0.072,0.332-0.125,0.865-0.157,1.599
		c-0.032,0.734-0.048,1.784-0.048,3.151V638.29z M212.154,647.639h-1.499c0.201-0.231,0.343-0.765,0.426-1.599
		c0.083-0.834,0.124-2.618,0.124-5.353v-0.973c0-2.981-0.042-4.884-0.124-5.706c-0.083-0.822-0.225-1.35-0.426-1.581h1.854
		c0.482,0,1.167-0.027,2.054-0.081c0.888-0.055,1.536-0.081,1.946-0.081c1.078,0,1.914,0.251,2.507,0.753s0.89,1.209,0.89,2.12
		c0,0.857-0.29,1.612-0.868,2.265s-1.432,1.188-2.561,1.604c1.315,0.162,2.333,0.601,3.051,1.314
		c0.719,0.715,1.078,1.644,1.078,2.787c0,1.39-0.487,2.516-1.461,3.377c-0.974,0.861-2.273,1.291-3.897,1.291
		c-0.396,0-0.937-0.022-1.623-0.069C212.939,647.663,212.449,647.639,212.154,647.639z"/>
	<path fill="#91A71C" d="M225.121,639.38c0.129,0.03,0.27,0.054,0.42,0.069s0.32,0.023,0.507,0.023c1.071,0,1.894-0.302,2.469-0.904
		c0.575-0.603,0.862-1.464,0.862-2.583c0-0.935-0.219-1.63-0.657-2.086c-0.439-0.455-1.107-0.684-2.005-0.684
		c-0.353,0-0.627,0.006-0.825,0.018s-0.386,0.029-0.566,0.053c-0.072,0.34-0.124,0.878-0.156,1.615
		c-0.032,0.738-0.048,1.782-0.048,3.134V639.38z M223.309,632.429c0.863,0,1.826-0.027,2.89-0.081
		c1.063-0.055,1.7-0.081,1.908-0.081c1.114,0,1.958,0.257,2.534,0.771c0.575,0.514,0.862,1.269,0.862,2.265
		c0,0.973-0.284,1.84-0.852,2.601c-0.568,0.761-1.402,1.389-2.501,1.883l3.159,4.727c0.524,0.78,1.008,1.431,1.45,1.952
		c0.442,0.521,0.839,0.913,1.191,1.176h-2.091c-0.28,0-0.494-0.041-0.642-0.122s-0.304-0.245-0.469-0.492l-3.774-5.699
		c-0.273-0.417-0.528-0.691-0.765-0.823c-0.237-0.131-0.543-0.196-0.917-0.196h-0.172v1.447c0,2.325,0.041,3.825,0.124,4.501
		c0.083,0.676,0.225,1.138,0.426,1.385h-2.998c0.201-0.231,0.343-0.765,0.426-1.599c0.083-0.834,0.124-2.618,0.124-5.353v-0.973
		c0-2.981-0.041-4.884-0.124-5.706c-0.083-0.822-0.225-1.35-0.426-1.581H223.309z"/>
	<path fill="#91A71C" stroke="#FFFFFF" stroke-width="0.25" stroke-miterlimit="1.4142" d="M225.121,639.38
		c0.129,0.03,0.27,0.054,0.42,0.069s0.32,0.023,0.507,0.023c1.071,0,1.894-0.302,2.469-0.904c0.575-0.603,0.862-1.464,0.862-2.583
		c0-0.935-0.219-1.63-0.657-2.086c-0.439-0.455-1.107-0.684-2.005-0.684c-0.353,0-0.627,0.006-0.825,0.018s-0.386,0.029-0.566,0.053
		c-0.072,0.34-0.124,0.878-0.156,1.615c-0.032,0.738-0.048,1.782-0.048,3.134V639.38z M223.309,632.429
		c0.863,0,1.826-0.027,2.89-0.081c1.063-0.055,1.7-0.081,1.908-0.081c1.114,0,1.958,0.257,2.534,0.771
		c0.575,0.514,0.862,1.269,0.862,2.265c0,0.973-0.284,1.84-0.852,2.601c-0.568,0.761-1.402,1.389-2.501,1.883l3.159,4.727
		c0.524,0.78,1.008,1.431,1.45,1.952c0.442,0.521,0.839,0.913,1.191,1.176h-2.091c-0.28,0-0.494-0.041-0.642-0.122
		s-0.304-0.245-0.469-0.492l-3.774-5.699c-0.273-0.417-0.528-0.691-0.765-0.823c-0.237-0.131-0.543-0.196-0.917-0.196h-0.172v1.447
		c0,2.325,0.041,3.825,0.124,4.501c0.083,0.676,0.225,1.138,0.426,1.385h-2.998c0.201-0.231,0.343-0.765,0.426-1.599
		c0.083-0.834,0.124-2.618,0.124-5.353v-0.973c0-2.981-0.041-4.884-0.124-5.706c-0.083-0.822-0.225-1.35-0.426-1.581H223.309z"/>
	<path fill="#91A71C" d="M244.262,632.429l-0.129,3.255c-0.316-0.826-0.758-1.448-1.326-1.865c-0.568-0.417-1.258-0.625-2.07-0.625
		c-1.582,0-2.823,0.56-3.725,1.68s-1.353,2.664-1.353,4.634c0,2.031,0.494,3.649,1.482,4.854s2.309,1.807,3.962,1.807
		c0.783,0,1.515-0.162,2.194-0.486s1.267-0.788,1.763-1.391c-0.259,1.105-0.839,1.987-1.741,2.647s-1.985,0.991-3.25,0.991
		c-1.926,0-3.508-0.723-4.744-2.167c-1.236-1.444-1.854-3.302-1.854-5.572c0-2.51,0.665-4.478,1.995-5.902
		c1.33-1.425,3.166-2.138,5.509-2.138c0.367,0,0.915,0.046,1.644,0.139S243.896,632.429,244.262,632.429z"/>
	<path fill="#91A71C" stroke="#FFFFFF" stroke-width="0.25" stroke-miterlimit="1.4142" d="M244.262,632.429l-0.129,3.255
		c-0.316-0.826-0.758-1.448-1.326-1.865c-0.568-0.417-1.258-0.625-2.07-0.625c-1.582,0-2.823,0.56-3.725,1.68
		s-1.353,2.664-1.353,4.634c0,2.031,0.494,3.649,1.482,4.854s2.309,1.807,3.962,1.807c0.783,0,1.515-0.162,2.194-0.486
		s1.267-0.788,1.763-1.391c-0.259,1.105-0.839,1.987-1.741,2.647s-1.985,0.991-3.25,0.991c-1.926,0-3.508-0.723-4.744-2.167
		c-1.236-1.444-1.854-3.302-1.854-5.572c0-2.51,0.665-4.478,1.995-5.902c1.33-1.425,3.166-2.138,5.509-2.138
		c0.367,0,0.915,0.046,1.644,0.139S243.896,632.429,244.262,632.429z"/>
	<path fill="#91A71C" d="M208.563,634.788c0,2.471-2.022,4.474-4.516,4.474s-4.516-2.003-4.516-4.474s2.022-4.474,4.516-4.474
		S208.563,632.317,208.563,634.788z"/>
	<path fill="#91A71C" stroke="#FFFFFF" stroke-width="0.25" stroke-miterlimit="1.4142" d="M208.563,634.788
		c0,2.471-2.022,4.474-4.516,4.474s-4.516-2.003-4.516-4.474s2.022-4.474,4.516-4.474S208.563,632.317,208.563,634.788z"/>
	<path fill="#91A71C" d="M208.651,644.759c0,2.471-2.022,4.474-4.516,4.474s-4.516-2.003-4.516-4.474s2.022-4.474,4.516-4.474
		S208.651,642.288,208.651,644.759z"/>
	<path fill="#91A71C" stroke="#FFFFFF" stroke-width="0.25" stroke-miterlimit="1.4142" d="M208.651,644.759
		c0,2.471-2.022,4.474-4.516,4.474s-4.516-2.003-4.516-4.474s2.022-4.474,4.516-4.474S208.651,642.288,208.651,644.759z"/>
	<path fill="#91A71C" d="M198.125,644.759c0,2.471-2.022,4.474-4.516,4.474s-4.516-2.003-4.516-4.474s2.022-4.474,4.516-4.474
		S198.125,642.288,198.125,644.759z"/>
	<path fill="#91A71C" stroke="#FFFFFF" stroke-width="0.25" stroke-miterlimit="1.4142" d="M198.125,644.759
		c0,2.471-2.022,4.474-4.516,4.474s-4.516-2.003-4.516-4.474s2.022-4.474,4.516-4.474S198.125,642.288,198.125,644.759z"/>
</g>
</svg>
